<?xml version="1.0" encoding="utf-8"?>
<!-- Generator: Adobe Illustrator 16.0.0, SVG Export Plug-In . SVG Version: 6.00 Build 0)  -->
<!DOCTYPE svg PUBLIC "-//W3C//DTD SVG 1.1//EN" "http://www.w3.org/Graphics/SVG/1.1/DTD/svg11.dtd">
<svg version="1.1" id="Layer_1" xmlns="http://www.w3.org/2000/svg" xmlns:xlink="http://www.w3.org/1999/xlink" x="0px" y="0px"
	 width="1800px" height="400px" viewBox="0 0 1800 400" enable-background="new 0 0 1800 400" xml:space="preserve">
<g>
	<g>
		<g>
			<g>
				<path fill="#FFFFFF" d="M240.565,129.543c2.663-4.493,5.993-8.474,9.905-11.836c0.227-0.196,0.461-0.382,0.693-0.573
					c9.263-7.5,20.913-11.244,32.837-10.543c0.648,0.035,1.271-0.061,1.843-0.266c6.953,0.619,13.832,2.761,20.123,6.49
					c2.213,1.312,5.076,0.581,6.388-1.634c1.313-2.215,0.581-5.075-1.634-6.389c-20.759-12.302-46.885-10.22-65.405,5.08
					c-0.066,0.053-0.134,0.102-0.199,0.156c-0.191,0.153-0.379,0.313-0.565,0.473l-0.125,0.108c-0.005,0.003-0.01,0.007-0.014,0.01
					c-0.008,0.007-0.018,0.014-0.025,0.022c-0.122,0.104-0.238,0.216-0.359,0.322c-6.387,5.479-11.565,12.396-14.977,20.054
					c-2.796,6.274-4.419,12.953-4.826,19.854c-0.201,3.385-0.101,6.782,0.295,10.083c3.221,27.48,25.636,48.613,53.301,50.248
					c1.125,0.065,2.25,0.1,3.37,0.1c12.657-0.001,24.967-4.199,34.992-11.998c0.01-0.005,0.017-0.012,0.025-0.017l0.016-0.011
					l0.229-0.163l0.072-0.071c5.704-4.401,10.478-9.805,14.194-16.072c0.271-0.458,0.451-0.946,0.551-1.439
					c3.979-7.297,6.378-15.447,6.879-23.923c0.151-2.571-1.807-4.778-4.379-4.931c-2.555-0.143-4.775,1.809-4.928,4.378
					c-0.809,13.654-7.45,26.32-18.222,34.765l-0.245,0.175l-0.052,0.05c-15.525,11.665-36.306,12.813-53.028,2.9
					c-12.774-7.57-21.167-20.369-23.026-35.116c-1.077-8.54,0.171-17.198,3.615-25.048
					C238.661,132.994,239.565,131.231,240.565,129.543z"/>
				<path fill="#FFFFFF" d="M345.094,110.969c-2.161-2.145-5.715-2.104-7.895,0.096l-21.682,21.851l-27.279,27.496l-4.617,4.652
					l-4.688-4.652l-15.973-15.848l-3.573-3.544c-0.405-0.4-0.855-0.726-1.334-0.98c-1.91-1.013-4.271-0.859-6,0.463
					c-0.048,0.037-0.099,0.069-0.146,0.106c-0.03,0.025-0.056,0.054-0.085,0.078c-0.113,0.096-0.225,0.194-0.331,0.301
					c-0.007,0.007-0.013,0.015-0.02,0.022c-1.246,1.267-1.74,3.005-1.498,4.665c0.125,0.865,0.449,1.706,0.974,2.449
					c0.188,0.267,0.397,0.524,0.636,0.762l4.972,4.932l6.646,6.596h0.002l16.281,16.149c0.498,0.493,1.067,0.876,1.671,1.148
					c2.104,1.092,4.797,0.735,6.576-1.058l16.108-16.239h0.006l15.742-15.873l11.536-11.627l13.941-14.052
					C347.244,116.668,347.258,113.114,345.094,110.969z"/>
				<path fill="#FFFFFF" d="M558.873,90.078l-323.16-61.714c-23.572-4.507-46.545,11.099-51.051,34.673l-13.345,69.875h-45.143
					c-24.001,0-43.638,19.637-43.638,43.638v56.055h-6.719c-24.002,0-43.638,19.639-43.638,43.638v72.642
					c-0.005,0.141-0.021,0.275-0.021,0.413v15.057c0,6.936,5.674,12.611,12.611,12.611h2.744c6.842,0,12.445-5.523,12.598-12.331
					h0.013v-0.26c0-0.006,0-0.014,0-0.021v-15.057c0-0.009,0-0.016,0-0.022v-53.371c0-14.958,9.3-27.853,22.411-33.185
					c1.512-0.608,3.072-1.128,4.677-1.534c2.791-0.709,5.707-1.085,8.715-1.085h14.553h36.545h28.452h210.238
					c19.699,0,35.804,16.113,35.804,35.804v52.11c-0.03,0.351-0.055,0.703-0.055,1.062v15.499c0,6.816,5.576,12.391,12.39,12.391
					h2.213c6.814,0,12.389-5.574,12.389-12.391v-15.499c0-0.042-0.006-0.079-0.006-0.118v-72.715
					c0-23.999-19.637-43.638-43.638-43.638h-224.09l13.79-72.19l5.254-27.502l8.653-45.321c3.695-19.34,22.545-32.139,41.891-28.453
					l284.645,54.364c18.774,3.584,31.386,21.452,28.729,40.188c-0.002,0.008-0.007,0.031-0.007,0.031s-0.001,0.011-0.002,0.012
					l-0.002,0.008c-0.001,0.005-0.001,0.01-0.003,0.015c-0.032,0.177-0.314,1.708-0.658,3.57c-0.362,1.948-1.646,8.883-2.873,15.504
					l-15.606,84.144l-15.557,83.879c-0.016,0.092-0.035,0.191-0.051,0.284l-2.209,11.898c-0.816,4.416-1.637,8.833-2.258,12.182
					l-0.479,2.592c-1.242,6.698,3.224,13.201,9.923,14.445l1.9,0.352c6.699,1.246,13.195-3.219,14.438-9.919l28.55-153.951
					c0.624-3.363,1.447-7.801,2.268-12.233l12.487-65.374C598.051,117.556,582.446,94.577,558.873,90.078z M152.281,232.605h-41.799
					V196.22c0-16.698,11.569-30.808,27.089-34.721c2.783-0.717,5.707-1.083,8.715-1.083h19.777L152.281,232.605z"/>
			</g>
		</g>
		<g>
			<path fill="#FFFFFF" d="M769.647,173.889v134.665h-25.539l-63.85-89.004v89.004h-25.54V173.889h25.54l63.85,88.808v-88.808
				H769.647z"/>
			<path fill="#FFFFFF" d="M837.655,302.361c-10.642-5.675-18.769-13.767-24.38-24.281c-5.611-10.513-8.415-22.8-8.415-36.859
				c0-14.058,2.834-26.343,8.512-36.858c5.675-10.512,13.932-18.604,24.766-24.282c10.835-5.674,23.799-8.513,38.892-8.513
				c6.317,0,12.543,0.614,18.669,1.838c6.125,1.227,11.64,3.065,16.543,5.514v23.605h-0.773c-4.904-2.835-10.225-4.964-15.962-6.385
				c-5.741-1.418-11.192-2.128-16.35-2.128c-14.704,0-26.283,4.062-34.729,12.189c-8.45,8.127-12.673,19.801-12.673,35.02
				c0,15.091,4.125,26.701,12.382,34.829c8.253,8.125,19.542,12.188,33.86,12.188c5.545,0,11.188-0.872,16.93-2.611
				c5.738-1.742,11.252-4.226,16.543-7.451h0.773v23.799c-10.322,5.936-22.444,8.9-36.375,8.9
				C861.033,310.875,848.296,308.037,837.655,302.361z"/>
			<path fill="#FFFFFF" d="M989.053,252.829l-14.705,17.026v38.698h-25.54V173.889h25.54v61.141l51.661-61.141h31.345
				l-50.888,58.818l53.982,75.847h-31.538L989.053,252.829z"/>
			<path fill="#FFFFFF" d="M1097.598,295.396c-10.192-10.319-15.286-24.507-15.286-42.567v-78.94h25.54v78.359
				c0,12.383,2.771,21.51,8.319,27.378c5.544,5.872,13.413,8.806,23.604,8.806c10.318,0,18.219-3,23.702-8.998
				c5.48-5.997,8.222-15.059,8.222-27.186v-78.359h25.541v78.94c0,18.061-5.097,32.248-15.285,42.567
				c-10.191,10.321-24.251,15.479-42.18,15.479S1107.785,305.718,1097.598,295.396z"/>
			<path fill="#FFFFFF" d="M1289.336,173.889h44.503c18.573,0,32.438,3.773,41.598,11.319c9.159,7.545,13.738,18.478,13.738,32.795
				c0,14.447-4.518,25.67-13.544,33.667c-9.03,7.998-22.187,11.995-39.472,11.995h-21.282v44.889h-25.541V173.889z
				 M1334.031,241.415c9.675,0,16.801-1.743,21.38-5.225c4.577-3.483,6.868-9.352,6.868-17.605c0-7.998-2.258-13.672-6.771-17.028
				c-4.518-3.353-11.738-5.03-21.669-5.03h-18.962v44.889H1334.031z"/>
			<path fill="#FFFFFF" d="M1489.205,277.982h-57.465l-11.222,30.571h-25.541l51.08-134.665h29.797l51.079,134.665h-26.506
				L1489.205,277.982z M1481.271,256.312l-20.702-57.27l-20.895,57.27H1481.271z"/>
			<path fill="#FFFFFF" d="M1571.24,307.973c-8.128-1.936-15.804-4.576-23.025-7.932v-24.767
				c16.766,9.028,31.731,13.544,44.889,13.544c6.578,0,11.898-1.417,15.963-4.256c4.063-2.836,6.093-6.836,6.093-11.999
				c0-3.608-1.131-6.672-3.385-9.188c-2.259-2.516-5.063-4.577-8.416-6.19c-3.356-1.612-8.126-3.581-14.317-5.901
				c-8.387-3.098-15.225-6.063-20.51-8.901c-5.291-2.835-9.805-6.868-13.544-12.093c-3.743-5.223-5.611-11.964-5.611-20.219
				c0-12.123,4.189-21.574,12.575-28.345c8.384-6.771,19.862-10.158,34.439-10.158c6.837,0,13.545,0.743,20.123,2.225
				c6.578,1.485,12.642,3.646,18.188,6.482v24.185c-13.029-7.222-25.605-10.834-37.729-10.834c-6.71,0-11.967,1.194-15.77,3.579
				c-3.805,2.388-5.708,5.775-5.708,10.158c0,4.387,1.966,7.836,5.902,10.351c3.933,2.517,10.027,5.258,18.284,8.225
				c8.64,3.227,15.735,6.321,21.282,9.287c5.544,2.968,10.353,7.254,14.415,12.866c4.063,5.611,6.223,12.867,6.481,21.766
				c0,12.771-4.323,22.803-12.963,30.087c-8.643,7.288-20.188,10.933-34.634,10.933
				C1587.038,310.875,1579.365,309.907,1571.24,307.973z"/>
			<path fill="#FFFFFF" d="M1695.068,307.973c-8.126-1.936-15.802-4.576-23.023-7.932v-24.767
				c16.766,9.028,31.731,13.544,44.889,13.544c6.577,0,11.898-1.417,15.961-4.256c4.064-2.836,6.095-6.836,6.095-11.999
				c0-3.608-1.131-6.672-3.385-9.188c-2.26-2.516-5.065-4.577-8.417-6.19c-3.357-1.612-8.127-3.581-14.318-5.901
				c-8.386-3.098-15.223-6.063-20.508-8.901c-5.292-2.835-9.805-6.868-13.546-12.093c-3.741-5.223-5.61-11.964-5.61-20.219
				c0-12.123,4.189-21.574,12.576-28.345c8.383-6.771,19.862-10.158,34.439-10.158c6.837,0,13.545,0.743,20.123,2.225
				c6.578,1.485,12.641,3.646,18.188,6.482v24.185c-13.029-7.222-25.605-10.834-37.729-10.834c-6.71,0-11.967,1.194-15.77,3.579
				c-3.806,2.388-5.709,5.775-5.709,10.158c0,4.387,1.967,7.836,5.902,10.351c3.934,2.517,10.028,5.258,18.284,8.225
				c8.64,3.227,15.736,6.321,21.283,9.287c5.544,2.968,10.353,7.254,14.414,12.866c4.063,5.611,6.222,12.867,6.482,21.766
				c0,12.771-4.323,22.803-12.963,30.087c-8.644,7.288-20.19,10.933-34.635,10.933
				C1710.867,310.875,1703.195,309.907,1695.068,307.973z"/>
		</g>
	</g>
</g>
</svg>
