<svg width="353" height="310" viewBox="0 0 353 310" fill="none" xmlns="http://www.w3.org/2000/svg">
<circle cy="11" r="11" fill="#F15A60"/>
<circle cx="38" cy="11" r="11" fill="#F15A60"/>
<circle cx="76" cy="11" r="11" fill="#F15A60"/>
<circle cx="114" cy="11" r="11" fill="#F15A60"/>
<circle cx="152" cy="11" r="11" fill="#F15A60"/>
<circle cx="190" cy="11" r="11" fill="#F15A60"/>
<circle cx="228" cy="11" r="11" fill="#F15A60"/>
<circle cx="266" cy="11" r="11" fill="#F15A60"/>
<circle cx="304" cy="11" r="11" fill="#F15A60"/>
<circle cx="342" cy="11" r="11" fill="#F15A60"/>
<circle cy="43" r="11" fill="#F15A60"/>
<circle cx="38" cy="43" r="11" fill="#F15A60"/>
<circle cx="76" cy="43" r="11" fill="#F15A60"/>
<circle cx="114" cy="43" r="11" fill="#F15A60"/>
<circle cx="152" cy="43" r="11" fill="#F15A60"/>
<circle cx="190" cy="43" r="11" fill="#F15A60"/>
<circle cx="228" cy="43" r="11" fill="#F15A60"/>
<circle cx="266" cy="43" r="11" fill="#F15A60"/>
<circle cx="304" cy="43" r="11" fill="#F15A60"/>
<circle cx="342" cy="43" r="11" fill="#F15A60"/>
<circle cy="75" r="11" fill="#F15A60"/>
<circle cx="38" cy="75" r="11" fill="#F15A60"/>
<circle cx="76" cy="75" r="11" fill="#F15A60"/>
<circle cx="114" cy="75" r="11" fill="#F15A60"/>
<circle cx="152" cy="75" r="11" fill="#F15A60"/>
<circle cx="190" cy="75" r="11" fill="#F15A60"/>
<circle cx="228" cy="75" r="11" fill="#F15A60"/>
<circle cx="266" cy="75" r="11" fill="#F15A60"/>
<circle cx="304" cy="75" r="11" fill="#F15A60"/>
<circle cx="342" cy="75" r="11" fill="#F15A60"/>
<circle cy="107" r="11" fill="#F15A60"/>
<circle cx="38" cy="107" r="11" fill="#F15A60"/>
<circle cx="76" cy="107" r="11" fill="#F15A60"/>
<circle cx="114" cy="107" r="11" fill="#F15A60"/>
<circle cx="152" cy="107" r="11" fill="#F15A60"/>
<circle cx="190" cy="107" r="11" fill="#F15A60"/>
<circle cx="228" cy="107" r="11" fill="#F15A60"/>
<circle cx="266" cy="107" r="11" fill="#F15A60"/>
<circle cx="304" cy="107" r="11" fill="#F15A60"/>
<circle cx="342" cy="107" r="11" fill="#F15A60"/>
<circle cy="139" r="11" fill="#F15A60"/>
<circle cx="38" cy="139" r="11" fill="#F15A60"/>
<circle cx="76" cy="139" r="11" fill="#F15A60"/>
<circle cx="114" cy="139" r="11" fill="#F15A60"/>
<circle cx="152" cy="139" r="11" fill="#F15A60"/>
<circle cx="190" cy="139" r="11" fill="#F15A60"/>
<circle cx="228" cy="139" r="11" fill="#F15A60"/>
<circle cx="266" cy="139" r="11" fill="#F15A60"/>
<circle cx="304" cy="139" r="11" fill="#F15A60"/>
<circle cx="342" cy="139" r="11" fill="#F15A60"/>
<circle cy="171" r="11" fill="#F15A60"/>
<circle cx="38" cy="171" r="11" fill="#F15A60"/>
<circle cx="76" cy="171" r="11" fill="#F15A60"/>
<circle cx="114" cy="171" r="11" fill="#F15A60"/>
<circle cx="152" cy="171" r="11" fill="#F15A60"/>
<circle cx="190" cy="171" r="11" fill="#F15A60"/>
<circle cx="228" cy="171" r="11" fill="#F15A60"/>
<circle cx="266" cy="171" r="11" fill="#F15A60"/>
<circle cx="304" cy="171" r="11" fill="#F15A60"/>
<circle cx="342" cy="171" r="11" fill="#F15A60"/>
<circle cy="203" r="11" fill="#F15A60"/>
<circle cx="38" cy="203" r="11" fill="#F15A60"/>
<circle cx="76" cy="203" r="11" fill="#F15A60"/>
<circle cx="114" cy="203" r="11" fill="#F15A60"/>
<circle cx="152" cy="203" r="11" fill="#F15A60"/>
<circle cx="190" cy="203" r="11" fill="#F15A60"/>
<circle cx="228" cy="203" r="11" fill="#F15A60"/>
<circle cx="266" cy="203" r="11" fill="#F15A60"/>
<circle cx="304" cy="203" r="11" fill="#F15A60"/>
<circle cx="342" cy="203" r="11" fill="#F15A60"/>
<circle cy="235" r="11" fill="#F15A60"/>
<circle cx="38" cy="235" r="11" fill="#F15A60"/>
<circle cx="76" cy="235" r="11" fill="#F15A60"/>
<circle cx="114" cy="235" r="11" fill="#F15A60"/>
<circle cx="152" cy="235" r="11" fill="#F15A60"/>
<circle cx="190" cy="235" r="11" fill="#F15A60"/>
<circle cx="228" cy="235" r="11" fill="#F15A60"/>
<circle cx="266" cy="235" r="11" fill="#F15A60"/>
<circle cx="304" cy="235" r="11" fill="#F15A60"/>
<circle cx="342" cy="235" r="11" fill="#F15A60"/>
<circle cy="267" r="11" fill="#F15A60"/>
<circle cx="38" cy="267" r="11" fill="#F15A60"/>
<circle cx="76" cy="267" r="11" fill="#F15A60"/>
<circle cx="114" cy="267" r="11" fill="#F15A60"/>
<circle cx="152" cy="267" r="11" fill="#F15A60"/>
<circle cx="190" cy="267" r="11" fill="#F15A60"/>
<circle cx="228" cy="267" r="11" fill="#F15A60"/>
<circle cx="266" cy="267" r="11" fill="#F15A60"/>
<circle cx="304" cy="267" r="11" fill="#F15A60"/>
<circle cx="342" cy="267" r="11" fill="#F15A60"/>
<circle cy="299" r="11" fill="#F15A60"/>
<circle cx="38" cy="299" r="11" fill="#F15A60"/>
<circle cx="76" cy="299" r="11" fill="#F15A60"/>
<circle cx="114" cy="299" r="11" fill="#F15A60"/>
<circle cx="152" cy="299" r="11" fill="#F15A60"/>
<circle cx="190" cy="299" r="11" fill="#F15A60"/>
<circle cx="228" cy="299" r="11" fill="#F15A60"/>
<circle cx="266" cy="299" r="11" fill="#F15A60"/>
<circle cx="304" cy="299" r="11" fill="#F15A60"/>
<circle cx="342" cy="299" r="11" fill="#F15A60"/>
</svg>
