<?xml version="1.0" encoding="UTF-8" standalone="no"?>
<!DOCTYPE svg PUBLIC "-//W3C//DTD SVG 1.1//EN" "http://www.w3.org/Graphics/SVG/1.1/DTD/svg11.dtd">
<svg width="100%" height="100%" viewBox="0 0 660 400" version="1.1" xmlns="http://www.w3.org/2000/svg" xmlns:xlink="http://www.w3.org/1999/xlink" xml:space="preserve" xmlns:serif="http://www.serif.com/" style="fill-rule:evenodd;clip-rule:evenodd;stroke-linejoin:round;stroke-miterlimit:2;">
    <g transform="matrix(1,0,0,1,-686,0)">
        <g>
            <g>
                <g>
                    <path d="M940.565,129.543C943.228,125.05 946.558,121.069 950.47,117.707C950.697,117.511 950.931,117.325 951.163,117.134C960.426,109.634 972.076,105.89 984,106.591C984.648,106.626 985.271,106.53 985.843,106.325C992.796,106.944 999.675,109.086 1005.97,112.815C1008.18,114.127 1011.04,113.396 1012.35,111.181C1013.67,108.966 1012.94,106.106 1010.72,104.792C989.961,92.49 963.835,94.572 945.315,109.872C945.249,109.925 945.181,109.974 945.116,110.028C944.925,110.181 944.737,110.341 944.551,110.501L944.426,110.609C944.421,110.612 944.416,110.616 944.412,110.619C944.404,110.626 944.394,110.633 944.387,110.641C944.265,110.745 944.149,110.857 944.028,110.963C937.641,116.442 932.463,123.359 929.051,131.017C926.255,137.291 924.632,143.97 924.225,150.871C924.024,154.256 924.124,157.653 924.52,160.954C927.741,188.434 950.156,209.567 977.821,211.202C978.946,211.267 980.071,211.302 981.191,211.302C993.848,211.301 1006.16,207.103 1016.18,199.304C1016.19,199.299 1016.2,199.292 1016.21,199.287L1016.22,199.276L1016.45,199.113L1016.52,199.042C1022.23,194.641 1027,189.237 1030.72,182.97C1030.99,182.512 1031.17,182.024 1031.27,181.531C1035.25,174.234 1037.65,166.084 1038.15,157.608C1038.3,155.037 1036.34,152.83 1033.77,152.677C1031.21,152.534 1029,154.486 1028.84,157.055C1028.03,170.709 1021.39,183.375 1010.62,191.82L1010.38,191.995L1010.32,192.045C994.798,203.71 974.017,204.858 957.295,194.945C944.521,187.375 936.128,174.576 934.269,159.829C933.192,151.289 934.44,142.631 937.884,134.781C938.661,132.994 939.565,131.231 940.565,129.543Z" style="fill:rgb(157,32,56);fill-rule:nonzero;"/>
                    <path d="M1045.09,110.969C1042.93,108.824 1039.38,108.865 1037.2,111.065L1015.52,132.916L988.238,160.412L983.621,165.064L978.933,160.412L962.96,144.564L959.387,141.02C958.982,140.62 958.532,140.294 958.053,140.04C956.143,139.027 953.782,139.181 952.053,140.503C952.005,140.54 951.954,140.572 951.907,140.609C951.877,140.634 951.851,140.663 951.822,140.687C951.709,140.783 951.597,140.881 951.491,140.988C951.484,140.995 951.478,141.003 951.471,141.01C950.225,142.277 949.731,144.015 949.973,145.675C950.098,146.54 950.422,147.381 950.947,148.124C951.135,148.391 951.344,148.648 951.583,148.886L956.555,153.818L963.201,160.414L963.203,160.414L979.484,176.563C979.982,177.056 980.551,177.439 981.155,177.711C983.259,178.803 985.952,178.446 987.731,176.653L1003.84,160.414L1003.85,160.414L1019.59,144.541L1031.12,132.914L1045.06,118.862C1047.24,116.668 1047.26,113.114 1045.09,110.969Z" style="fill:rgb(157,32,56);fill-rule:nonzero;"/>
                    <path d="M1258.87,90.078L935.713,28.364C912.141,23.857 889.168,39.463 884.662,63.037L871.317,132.912L826.174,132.912C802.173,132.912 782.536,152.549 782.536,176.55L782.536,232.605L775.817,232.605C751.815,232.605 732.179,252.244 732.179,276.243L732.179,348.885C732.174,349.026 732.158,349.16 732.158,349.298L732.158,364.355C732.158,371.291 737.832,376.966 744.769,376.966L747.513,376.966C754.355,376.966 759.958,371.443 760.111,364.635L760.124,364.635L760.124,295.904C760.124,280.946 769.424,268.051 782.535,262.719C784.047,262.111 785.607,261.591 787.212,261.185C790.003,260.476 792.919,260.1 795.927,260.1L1085.71,260.1C1105.41,260.1 1121.52,276.213 1121.52,295.904L1121.52,348.014C1121.49,348.365 1121.46,348.717 1121.46,349.076L1121.46,364.575C1121.46,371.391 1127.04,376.966 1133.85,376.966L1136.07,376.966C1142.88,376.966 1148.46,371.392 1148.46,364.575L1148.46,349.076C1148.46,349.034 1148.45,348.997 1148.45,348.958L1148.45,276.243C1148.45,252.244 1128.81,232.605 1104.81,232.605L880.722,232.605L894.512,160.415L899.766,132.913L908.419,87.592C912.114,68.252 930.964,55.453 950.31,59.139L1234.95,113.503C1253.73,117.087 1266.34,134.955 1263.68,153.691C1263.68,153.699 1263.68,153.722 1263.68,153.722C1263.68,153.722 1263.68,153.733 1263.67,153.734L1263.67,153.742C1263.67,153.747 1263.67,153.752 1263.67,153.757C1263.64,153.934 1263.36,155.465 1263.01,157.327C1262.65,159.275 1261.37,166.21 1260.14,172.831L1244.53,256.975L1228.98,340.854C1228.96,340.946 1228.94,341.045 1228.92,341.138L1226.72,353.036C1225.9,357.452 1225.08,361.869 1224.46,365.218L1223.98,367.81C1222.74,374.508 1227.2,381.011 1233.9,382.255L1235.8,382.607C1242.5,383.853 1249,379.388 1250.24,372.688L1278.79,218.737C1279.41,215.374 1280.24,210.936 1281.06,206.504L1293.55,141.13C1298.05,117.556 1282.45,94.577 1258.87,90.078ZM852.281,232.605L810.482,232.605L810.482,196.22C810.482,179.522 822.051,165.412 837.571,161.499C840.354,160.782 843.278,160.416 846.286,160.416L866.063,160.416L852.281,232.605Z" style="fill:rgb(157,32,56);fill-rule:nonzero;"/>
                </g>
            </g>
        </g>
    </g>
</svg>
