<svg id="圖層_1" data-name="圖層 1" xmlns="http://www.w3.org/2000/svg" viewBox="0 0 1000 200"><defs><style>.cls-1{fill:#fff;}</style></defs><polygon class="cls-1" points="2.14 112.45 2.14 112.45 2.14 112.45 2.14 112.45"/><path class="cls-1" d="M62.8739 16.987C62.6416 15.8579 62.0447 14.8336 61.1729 14.068C60.2566 13.2675 59.1026 12.7813 57.8833 12.682C57.695 12.664 57.5097 12.661 57.3305 12.661H55.5627C54.9245 11.3989 53.823 10.4246 52.4826 9.937C51.8994 9.72404 51.2819 9.61732 50.6601 9.622C50.2052 9.62313 49.7518 9.67445 49.3084 9.775L48.865 9.877L46.596 10.396L42.8598 11.248L38.1274 12.325L36.6816 12.655H23.107C22.6362 12.655 22.1471 12.637 21.652 12.637C21.0763 12.6283 20.5009 12.6705 19.9328 12.763C18.7846 12.9844 17.7401 13.5675 16.956 14.425C16.1736 15.2796 15.679 16.353 15.5406 17.497L15.1032 17.596L13.8304 17.896C12.6751 18.1629 11.6395 18.7949 10.881 19.696V19.696C10.0542 20.6906 9.60132 21.9371 9.5992 23.224C9.60046 23.5518 9.6289 23.8788 9.68425 24.202C9.77538 24.733 9.92118 25.243 10.0366 25.735L10.6441 28.315C10.6684 28.411 10.6897 28.504 10.7109 28.597C9.78644 28.8767 8.95401 29.3944 8.29915 30.097C7.47661 30.9904 6.96933 32.1229 6.8533 33.325C6.83126 33.5523 6.82112 33.7806 6.82293 34.009C6.82293 34.234 6.82293 34.453 6.82293 34.666V37.492H6.54044C5.53753 37.4913 4.55306 37.7582 3.69114 38.2647C2.82922 38.7711 2.1219 39.4982 1.64399 40.369C1.21759 41.1797 0.996619 42.0805 1.00004 42.994V52.393C1.00501 52.7353 1.14061 53.0632 1.37973 53.311C1.4975 53.4386 1.64041 53.5412 1.79971 53.6124C1.95901 53.6836 2.13135 53.7219 2.30616 53.725H2.36084C2.70852 53.709 3.03863 53.5694 3.29031 53.332C3.417 53.2103 3.51774 53.0648 3.5866 52.904C3.65546 52.7433 3.69105 52.5706 3.69126 52.396V43.012C3.69126 42.856 3.69126 42.697 3.71253 42.529C3.71253 42.481 3.73379 42.433 3.7429 42.385H3.73379C3.76113 42.265 3.7915 42.151 3.82795 42.037C3.84314 41.989 3.86136 41.941 3.87959 41.893C3.94338 41.773 3.98286 41.668 4.01931 41.593C4.05576 41.518 4.12866 41.404 4.18941 41.314L4.26839 41.203C4.4144 41.0318 4.57496 40.8732 4.74831 40.729L4.81818 40.681L4.8607 40.645C4.9579 40.579 5.06118 40.519 5.16445 40.462C5.26773 40.405 5.32544 40.384 5.4196 40.336L5.59881 40.276C5.70544 40.2411 5.81394 40.212 5.92383 40.189L6.08785 40.156C6.23061 40.156 6.36426 40.135 6.49184 40.135H43.1362C43.1939 40.132 43.2517 40.132 43.3094 40.135H43.3276C43.5438 40.1748 43.7578 40.2259 43.9685 40.288L44.09 40.333C44.1963 40.384 44.2996 40.435 44.3938 40.489C44.4879 40.543 44.5791 40.603 44.6702 40.663H44.6854L44.8038 40.759C44.9586 40.9002 45.1047 41.0505 45.2412 41.209L45.3324 41.338C45.3961 41.437 45.4569 41.539 45.5116 41.638L45.5814 41.779C45.6209 41.896 45.6634 41.995 45.6847 42.079C45.7185 42.1853 45.7458 42.2935 45.7667 42.403C45.7667 42.433 45.7667 42.469 45.788 42.508C45.8092 42.547 45.788 42.559 45.788 42.574C45.788 42.709 45.788 42.847 45.788 42.991V52.357C45.7944 52.699 45.9298 53.0264 46.1677 53.275C46.2863 53.4022 46.4299 53.5042 46.5896 53.5749C46.7494 53.6455 46.9221 53.6833 47.0971 53.686H47.17C47.5179 53.6708 47.8483 53.5311 48.0995 53.293C48.2273 53.1722 48.3288 53.0268 48.3978 52.8659C48.4667 52.7049 48.5016 52.5318 48.5005 52.357V42.982C48.5121 41.8715 48.1792 40.7841 47.5466 39.8659C46.914 38.9478 46.012 38.2429 44.9618 37.846C44.2031 37.5752 43.3986 37.452 42.5925 37.483H9.52023V34.141C9.52023 33.886 9.52023 33.637 9.54149 33.394C9.54149 33.367 9.54149 33.34 9.54149 33.319C9.56275 33.211 9.59009 33.103 9.62046 32.998C9.6478 32.905 9.68425 32.809 9.7207 32.698L9.77841 32.575C9.83005 32.479 9.88169 32.386 9.9394 32.293L10.0214 32.182C10.057 32.1372 10.0895 32.0901 10.1186 32.041L10.1672 31.981C10.2523 31.888 10.3404 31.798 10.4315 31.714L10.6168 31.558L10.7352 31.477C10.8567 31.399 11.0086 31.33 11.1757 31.246H11.2L11.2941 31.195C11.3377 31.1773 11.3823 31.1623 11.4278 31.15V31.15C11.5344 31.1151 11.6429 31.086 11.7528 31.063V31.063C11.7699 31.061 11.7873 31.061 11.8044 31.063H11.8318C11.855 31.0644 11.8784 31.0644 11.9016 31.063L12.014 31.033H12.2115H48.8771C48.9774 31.033 49.0867 31.033 49.2021 31.051L49.3388 31.078C49.5053 31.1208 49.6696 31.1718 49.8309 31.231H49.8643L49.9737 31.258L50.083 31.312C50.162 31.354 50.241 31.399 50.3199 31.447C50.3525 31.4663 50.3839 31.4873 50.4141 31.51C50.4217 31.5212 50.4309 31.5314 50.4414 31.54L50.49 31.579L50.5872 31.63L50.6935 31.723C50.7938 31.813 50.891 31.924 50.9973 32.041V32.056C51.0057 32.0702 51.0159 32.0833 51.0277 32.095L51.1036 32.188L51.1401 32.233V32.251C51.2038 32.35 51.2646 32.452 51.3193 32.551L51.3739 32.656C51.3881 32.6803 51.4044 32.7034 51.4225 32.725L51.4408 32.779C51.4482 32.7968 51.4574 32.8139 51.4681 32.83V32.83V32.878C51.5035 32.9823 51.5329 33.0885 51.5562 33.196C51.5562 33.25 51.5805 33.307 51.5926 33.361C51.6109 33.586 51.6109 33.817 51.6109 34.057V44.587C51.6189 44.9452 51.7695 45.2857 52.03 45.535C52.1482 45.6627 52.2917 45.7651 52.4516 45.8358C52.6115 45.9065 52.7843 45.944 52.9595 45.946H53.0112C53.3593 45.9322 53.6902 45.7923 53.9406 45.553C54.0689 45.4325 54.1706 45.2872 54.2396 45.1262C54.3086 44.9651 54.3433 44.7918 54.3416 44.617V35.125C54.3416 34.846 54.3416 34.564 54.3416 34.276C54.3524 33.7333 54.3107 33.1908 54.217 32.656C53.982 31.5279 53.3856 30.5044 52.516 29.737C51.5997 28.9365 50.4457 28.4503 49.2264 28.351C49.0411 28.351 48.8589 28.333 48.6797 28.333H14.441C14.1038 28.333 13.7575 28.333 13.4052 28.318L12.6306 25.018C12.5122 24.514 12.3755 24.022 12.2935 23.542C12.2935 23.47 12.2935 23.404 12.2935 23.344C12.2935 23.284 12.2935 23.239 12.2935 23.188C12.2935 23.083 12.2935 22.978 12.3087 22.873V22.819L12.3238 22.738V22.687C12.352 22.5457 12.3895 22.4064 12.4362 22.27C12.4362 22.219 12.4757 22.165 12.497 22.102L12.5152 22.06C12.579 21.934 12.6489 21.808 12.7248 21.688C12.7612 21.628 12.8007 21.568 12.8433 21.511L12.8645 21.481C12.9587 21.373 13.0498 21.271 13.144 21.181C13.1874 21.1377 13.233 21.0967 13.2807 21.058V21.058L13.308 21.043C13.3266 21.0319 13.3439 21.0188 13.3596 21.004L13.4204 20.953L13.4447 20.935C13.5115 20.89 13.5844 20.845 13.6573 20.803C13.7607 20.7436 13.8672 20.6895 13.9762 20.641L14.0188 20.623C14.0977 20.593 14.1798 20.566 14.2618 20.542C14.3499 20.518 14.441 20.494 14.5382 20.473L15.0242 20.362L15.8443 20.173L16.8862 19.936L17.3266 19.834L17.9341 19.699L21.0688 18.982L25.786 17.905L31.047 16.705L36.4051 15.484L37.0126 15.349L41.414 14.344L41.5233 14.32L45.6513 13.342L46.031 13.255L48.6615 12.655C49.114 12.553 49.5727 12.448 50.0101 12.355H50.0405L50.1407 12.334L50.2865 12.31H50.3807C50.4657 12.31 50.5538 12.31 50.6389 12.31H50.8302L51.0186 12.325H51.0489C51.1822 12.3485 51.3141 12.3796 51.4438 12.418L51.6504 12.484L51.7141 12.508C51.8356 12.568 51.948 12.619 52.0483 12.676L52.2305 12.79L52.3125 12.847L52.3611 12.883L52.3824 12.898L52.4128 12.922L52.5738 13.066L52.6953 13.189C52.753 13.255 52.8137 13.318 52.8684 13.384C52.9109 13.444 52.9534 13.504 52.9899 13.564C53.0688 13.688 53.1408 13.8162 53.2056 13.948V13.984L53.2511 14.107L53.2663 14.149C53.3028 14.26 53.3362 14.377 53.3635 14.497C53.4121 14.695 53.4607 14.899 53.5063 15.097C53.5518 15.295 53.6217 15.586 53.6764 15.829L54.5026 19.225L55.6052 23.938C55.9474 25.394 56.2886 26.85 56.6288 28.306L56.8384 29.206C57.2434 30.898 57.6393 32.588 58.0261 34.276C58.344 35.648 58.6639 37.018 58.9859 38.386L59.4962 40.555C59.4962 40.63 59.5296 40.702 59.5448 40.774C59.56 40.846 59.5965 40.987 59.6208 41.095C59.6931 41.3843 59.8676 41.6385 60.1128 41.812C60.3491 41.9865 60.635 42.0831 60.9299 42.088C61.0527 42.0884 61.1748 42.0691 61.2914 42.031C61.574 41.9434 61.8216 41.7702 61.9991 41.536C62.116 41.3759 62.1964 41.1927 62.2346 40.999C62.2729 40.8053 62.2682 40.6057 62.2209 40.414C62.1206 39.973 62.0173 39.535 61.9171 39.097L61.1122 35.653C60.7375 34.053 60.3639 32.453 59.9913 30.853L59.4355 28.483C59.2087 27.499 58.9788 26.515 58.746 25.531C58.341 23.833 57.9441 22.133 57.5553 20.431L56.5863 16.357C56.5043 16.012 56.4223 15.667 56.3433 15.322H57.5279C57.6312 15.322 57.7375 15.322 57.8529 15.343L57.9927 15.367C58.1293 15.394 58.2964 15.46 58.4817 15.52C58.5086 15.5304 58.5359 15.5394 58.5637 15.547L58.6245 15.562C58.6621 15.5776 58.6986 15.5956 58.7338 15.616C58.8158 15.658 58.8948 15.703 58.9707 15.748L59.0649 15.814L59.0922 15.844L59.1439 15.88L59.238 15.934L59.3474 16.027C59.4446 16.114 59.5418 16.228 59.6511 16.345V16.36L59.6785 16.399L59.7544 16.489L59.7939 16.537V16.552C59.8577 16.651 59.9184 16.75 59.9731 16.852L60.0278 16.96C60.0278 16.99 60.043 17.02 60.049 17.041L60.0673 17.095C60.0759 17.1138 60.086 17.1319 60.0976 17.149V17.149C60.1027 17.1654 60.1088 17.1814 60.1159 17.197V17.197C60.1493 17.302 60.1797 17.41 60.204 17.518C60.204 17.572 60.2283 17.626 60.2374 17.68V17.725C60.2556 17.947 60.2586 18.175 60.2586 18.412V28.945C60.2624 29.2876 60.3982 29.6158 60.6383 29.863C60.754 29.9892 60.8944 30.091 61.051 30.1622C61.2076 30.2333 61.3772 30.2724 61.5496 30.277H61.6012C61.9498 30.2636 62.2814 30.1249 62.5337 29.887C62.6606 29.7648 62.7615 29.6188 62.8304 29.4576C62.8992 29.2963 62.9347 29.123 62.9347 28.948V19.453C62.9347 19.174 62.9347 18.892 62.9347 18.607C62.9681 18.0663 62.9478 17.5237 62.8739 16.987ZM18.6175 16.624C18.6175 16.603 18.6601 16.564 18.6965 16.516C18.7314 16.4707 18.7638 16.4237 18.7937 16.375L18.8423 16.315C18.926 16.2199 19.0152 16.1297 19.1096 16.045V16.045C19.1613 15.997 19.225 15.946 19.2949 15.886L19.4134 15.808C19.5548 15.7223 19.7008 15.6442 19.8508 15.574H19.8781L19.9723 15.52L20.1029 15.475C20.2122 15.442 20.3185 15.412 20.4279 15.388H20.4826H20.5069C20.5311 15.3909 20.5556 15.3909 20.5798 15.388L20.6891 15.361C20.7559 15.361 20.8228 15.361 20.8896 15.361H25.0327L22.3385 15.925L18.5112 16.825C18.5446 16.762 18.5781 16.702 18.6175 16.639V16.624Z"/><path class="cls-1" d="M106.77 16.768V46H102.234L87.366 24.916V46H82.83V16.768H87.366L102.234 37.81V16.768H106.77ZM127.61 46.504C124.586 46.504 122.01 45.888 119.882 44.656C117.754 43.396 116.144 41.632 115.052 39.364C113.96 37.096 113.414 34.436 113.414 31.384C113.414 28.332 113.96 25.672 115.052 23.404C116.172 21.136 117.796 19.386 119.924 18.154C122.08 16.894 124.67 16.264 127.694 16.264C129.15 16.264 130.578 16.432 131.978 16.768C133.378 17.076 134.638 17.552 135.758 18.196V22.816H135.59C134.582 22.06 133.406 21.458 132.062 21.01C130.746 20.562 129.388 20.338 127.988 20.338C124.824 20.338 122.402 21.318 120.722 23.278C119.07 25.21 118.244 27.912 118.244 31.384C118.244 34.856 119.056 37.572 120.68 39.532C122.332 41.464 124.726 42.43 127.862 42.43C129.262 42.43 130.634 42.206 131.978 41.758C133.322 41.282 134.526 40.624 135.59 39.784H135.758V44.404C133.434 45.804 130.718 46.504 127.61 46.504ZM150.966 33.148L147.186 37.516V46H142.65V16.768H147.186V31.132L159.492 16.768H165.036L154.074 29.494L165.834 46H160.164L150.966 33.148ZM181.609 46.504C177.913 46.504 175.029 45.384 172.957 43.144C170.885 40.876 169.849 37.796 169.849 33.904V16.768H174.385V33.778C174.385 36.55 175.001 38.692 176.233 40.204C177.493 41.688 179.285 42.43 181.609 42.43C183.933 42.43 185.711 41.674 186.943 40.162C188.203 38.65 188.833 36.522 188.833 33.778V16.768H193.369V33.904C193.369 37.796 192.333 40.876 190.261 43.144C188.189 45.384 185.305 46.504 181.609 46.504ZM210.601 16.768H220.177C227.793 16.768 231.601 19.96 231.601 26.344C231.601 29.536 230.663 31.986 228.787 33.694C226.911 35.402 224.167 36.256 220.555 36.256H215.137V46H210.601V16.768ZM220.261 32.182C222.529 32.182 224.181 31.748 225.217 30.88C226.253 30.012 226.771 28.556 226.771 26.512C226.771 24.496 226.253 23.068 225.217 22.228C224.209 21.36 222.529 20.926 220.177 20.926H215.137V32.182H220.261ZM251.95 38.776H238.552L235.864 46H231.328L242.5 16.768H248.212L259.384 46H254.638L251.95 38.776ZM250.48 34.912L245.272 20.968L240.022 34.912H250.48ZM272.472 46.504C270.876 46.504 269.196 46.294 267.432 45.874C265.668 45.454 264.002 44.88 262.434 44.152V39.532C265.99 41.492 269.252 42.472 272.22 42.472C273.9 42.472 275.23 42.094 276.21 41.338C277.218 40.582 277.722 39.546 277.722 38.23C277.722 37.278 277.442 36.494 276.882 35.878C276.35 35.234 275.664 34.73 274.824 34.366C274.012 33.974 272.892 33.526 271.464 33.022C269.644 32.378 268.174 31.762 267.054 31.174C265.934 30.586 264.968 29.76 264.156 28.696C263.372 27.604 262.98 26.204 262.98 24.496C262.98 21.948 263.876 19.946 265.668 18.49C267.488 17.006 269.938 16.264 273.018 16.264C274.474 16.264 275.902 16.432 277.302 16.768C278.702 17.076 280.004 17.538 281.208 18.154V22.648C278.408 21.08 275.692 20.296 273.06 20.296C271.352 20.296 270.008 20.632 269.028 21.304C268.076 21.948 267.6 22.844 267.6 23.992C267.6 24.804 267.852 25.49 268.356 26.05C268.86 26.61 269.49 27.072 270.246 27.436C271.03 27.772 272.094 28.178 273.438 28.654C275.314 29.326 276.84 29.97 278.016 30.586C279.192 31.202 280.2 32.098 281.04 33.274C281.908 34.422 282.356 35.906 282.384 37.726C282.384 40.414 281.474 42.556 279.654 44.152C277.862 45.72 275.468 46.504 272.472 46.504ZM297.337 46.504C295.741 46.504 294.061 46.294 292.297 45.874C290.533 45.454 288.867 44.88 287.299 44.152V39.532C290.855 41.492 294.117 42.472 297.085 42.472C298.765 42.472 300.095 42.094 301.075 41.338C302.083 40.582 302.587 39.546 302.587 38.23C302.587 37.278 302.307 36.494 301.747 35.878C301.215 35.234 300.529 34.73 299.689 34.366C298.877 33.974 297.757 33.526 296.329 33.022C294.509 32.378 293.039 31.762 291.919 31.174C290.799 30.586 289.833 29.76 289.021 28.696C288.237 27.604 287.845 26.204 287.845 24.496C287.845 21.948 288.741 19.946 290.533 18.49C292.353 17.006 294.803 16.264 297.883 16.264C299.339 16.264 300.767 16.432 302.167 16.768C303.567 17.076 304.869 17.538 306.073 18.154V22.648C303.273 21.08 300.557 20.296 297.925 20.296C296.217 20.296 294.873 20.632 293.893 21.304C292.941 21.948 292.465 22.844 292.465 23.992C292.465 24.804 292.717 25.49 293.221 26.05C293.725 26.61 294.355 27.072 295.111 27.436C295.895 27.772 296.959 28.178 298.303 28.654C300.179 29.326 301.705 29.97 302.881 30.586C304.057 31.202 305.065 32.098 305.905 33.274C306.773 34.422 307.221 35.906 307.249 37.726C307.249 40.414 306.339 42.556 304.519 44.152C302.727 45.72 300.333 46.504 297.337 46.504Z"/></svg>