<svg id="圖層_1" data-name="圖層 1" xmlns="http://www.w3.org/2000/svg" viewBox="0 0 1000 200"><defs><style>.cls-1{fill:#962233;}</style></defs><polygon class="cls-1" points="2.14 112.45 2.14 112.45 2.14 112.45 2.14 112.45"/><path class="cls-1" d="M203.7,34.54h0a17.75,17.75,0,0,0-5.6-9.73,18.66,18.66,0,0,0-10.83-4.62c-.62-.06-1.23-.07-1.82-.07h-5.82a18.47,18.47,0,0,0-10.14-9.08,16.93,16.93,0,0,0-6-1.05,20.11,20.11,0,0,0-4.45.51l-1.46.34h0l-7.47,1.73-12.3,2.84L122.23,19l-4.76,1.1H72.78c-1.55,0-3.16-.06-4.79-.06a31.8,31.8,0,0,0-5.66.42A17.8,17.8,0,0,0,52.53,26a18.55,18.55,0,0,0-4.66,10.24l-1.44.33h0l-4.19,1h0a17.94,17.94,0,0,0-9.71,6h0a18.58,18.58,0,0,0-4.22,11.76,20,20,0,0,0,.28,3.26c.3,1.77.78,3.47,1.16,5.11l2,8.6c.08.32.15.63.22.94a17.93,17.93,0,0,0-7.94,5A18.62,18.62,0,0,0,19.27,89a22.1,22.1,0,0,0-.1,2.28c0,.75,0,1.48,0,2.19v9.42h-.93a18.32,18.32,0,0,0-16.12,9.59A18.83,18.83,0,0,0,0,121.23v31.33a4.53,4.53,0,0,0,1.25,3.06A4.23,4.23,0,0,0,4.3,157h.18a4.75,4.75,0,0,0,3.06-1.31,4.36,4.36,0,0,0,1.32-3.12V121.29c0-.52,0-1.05.07-1.61,0-.16.07-.32.1-.48H9c.09-.4.19-.78.31-1.16.05-.16.11-.32.17-.48.21-.4.34-.75.46-1s.36-.63.56-.93h0l.26-.37v0a13.1,13.1,0,0,1,1.58-1.58l.23-.16.14-.12h0c.32-.22.66-.42,1-.61s.53-.26.84-.42l.59-.2a10,10,0,0,1,1.07-.29l.54-.11h0c.47,0,.91-.07,1.33-.07H138.72a5.44,5.44,0,0,1,.57,0h.06a20.5,20.5,0,0,1,2.11.51l.4.15c.35.17.69.34,1,.52s.61.38.91.58l.05,0,.39.32a17.29,17.29,0,0,1,1.44,1.5h0l.3.43c.21.33.41.67.59,1l.23.47c.13.39.27.72.34,1a9.47,9.47,0,0,1,.27,1.08c0,.1,0,.22.07.35s0,.17,0,.22h0c0,.45,0,.91,0,1.39v31.22a4.58,4.58,0,0,0,1.25,3.06,4.25,4.25,0,0,0,3.06,1.37H152a4.72,4.72,0,0,0,3.06-1.31,4.28,4.28,0,0,0,1.32-3.12V121.19a18.13,18.13,0,0,0-11.65-17.12,20.59,20.59,0,0,0-7.8-1.21H28.05V91.72c0-.85,0-1.68.07-2.49,0-.09,0-.18,0-.25h0c.07-.36.16-.72.26-1.07h0c.09-.31.21-.63.33-1l.19-.41h0c.17-.32.34-.63.53-.94h0l.27-.37a4.21,4.21,0,0,0,.32-.47l.16-.2c.28-.31.57-.61.87-.89h0l.61-.52.39-.27h0c.4-.26.9-.49,1.45-.77l.08,0,.31-.17a3.81,3.81,0,0,1,.44-.15h0a10,10,0,0,1,1.07-.29h0a.71.71,0,0,1,.17,0h.09a1.84,1.84,0,0,0,.23,0l.37-.1.65,0H157.62c.33,0,.69,0,1.07.06l.45.09a16.8,16.8,0,0,1,1.62.51l.11,0,.36.09.36.18h0q.39.21.78.45h0a3.43,3.43,0,0,1,.31.21.47.47,0,0,0,.09.1l.16.13.32.17.35.31c.33.3.65.67,1,1.06l0,.05a.64.64,0,0,0,.1.13l.25.31.12.15,0,.06h0c.21.33.41.67.59,1h0l.18.35A1.63,1.63,0,0,0,166,87l.06.18a1,1,0,0,0,.09.17l0,0,0,.16a9.77,9.77,0,0,1,.29,1.06c0,.18.08.37.12.55h0v0c.06.75.06,1.52.06,2.32v35.1A4.54,4.54,0,0,0,168,129.7a4.21,4.21,0,0,0,3.06,1.37h.17a4.67,4.67,0,0,0,3.06-1.31,4.25,4.25,0,0,0,1.32-3.12V95c0-.93,0-1.87,0-2.83a28.38,28.38,0,0,0-.41-5.4,17.88,17.88,0,0,0-5.6-9.73,18.66,18.66,0,0,0-10.83-4.62c-.61,0-1.21-.06-1.8-.06H44.25c-1.11,0-2.25,0-3.41-.05l-2.55-11c-.39-1.68-.84-3.32-1.11-4.92h0c0-.24,0-.46,0-.66s0-.35,0-.52c0-.35,0-.7.05-1.05v-.18l.05-.27,0-.17a10.94,10.94,0,0,1,.37-1.39c0-.17.13-.35.2-.56l.06-.14c.21-.42.44-.84.69-1.24h0c.12-.2.25-.4.39-.59l.07-.1c.31-.36.61-.7.92-1a5.92,5.92,0,0,1,.45-.41h0l0,0,.09-.05a1,1,0,0,0,.17-.13l.2-.17.08-.06,0,0c.22-.15.46-.3.7-.44h0a11.35,11.35,0,0,1,1.05-.54l.14-.06c.26-.1.53-.19.8-.27h0c.29-.08.59-.16.91-.23h0l1.6-.37h0l2.7-.63h0l3.43-.79h0l1.45-.34h0l2-.45,10.32-2.39h0l15.53-3.59,17.32-4,17.64-4.07h0l2-.45h0l14.49-3.35h0l.36-.08h0L147,22.39h0l1.25-.29h0l8.66-2c1.49-.34,3-.69,4.44-1h0l.1,0h0l.33-.07h0l.48-.08.31,0h0c.28,0,.57,0,.85,0h.63l.62.05.1,0h0a11.69,11.69,0,0,1,1.3.31l.68.22h0l.21.08c.4.2.77.37,1.1.56l.6.38h0l.27.19.16.12.07.05.1.08.53.48.4.41h0c.19.22.39.43.57.65l0,0h0c.14.2.28.4.4.6a13.38,13.38,0,0,1,.71,1.28l0,.12.15.41h0l.05.14c.12.37.23.76.32,1.16.16.66.32,1.34.47,2s.38,1.63.56,2.44L176.14,42l3.63,15.71q1.69,7.28,3.37,14.56l.69,3q2,8.46,3.91,16.9,1.57,6.86,3.16,13.7l1.68,7.23c0,.25.11.49.16.73s.17.71.25,1.07a4.17,4.17,0,0,0,1.62,2.39,4.62,4.62,0,0,0,2.69.92,3.75,3.75,0,0,0,1.19-.19,4.65,4.65,0,0,0,2.33-1.65,4.55,4.55,0,0,0,.73-3.74c-.33-1.47-.67-2.93-1-4.39L197.9,96.76q-1.85-8-3.69-16l-1.83-7.9q-1.12-4.92-2.27-9.84-2-8.49-3.92-17L183,32.44c-.27-1.15-.54-2.3-.8-3.45h3.9c.34,0,.69,0,1.07.07l.46.08h0c.45.09,1,.31,1.61.51a2.82,2.82,0,0,0,.27.09l.2.05a3,3,0,0,1,.36.18c.27.14.53.29.78.44l.31.22.09.1.17.12.31.18.36.31h0c.32.29.64.67,1,1.06l0,.05.09.13.25.3.13.16,0,.05v0h0c.21.33.41.66.59,1l.18.36c0,.1.05.2.07.27l.06.18a1.26,1.26,0,0,0,.1.18l0,0a1.38,1.38,0,0,0,.06.16h0c.11.35.21.71.29,1.07,0,.18.08.36.11.54h0V37c.06.74.07,1.5.07,2.29V74.4a4.49,4.49,0,0,0,1.25,3.06,4.2,4.2,0,0,0,3,1.38h.17a4.71,4.71,0,0,0,3.07-1.3,4.37,4.37,0,0,0,1.32-3.13V42.76c0-.93,0-1.87,0-2.82A27.59,27.59,0,0,0,203.7,34.54ZM58,33.33c0-.07.14-.2.26-.36a5.41,5.41,0,0,0,.32-.47l.16-.2a10.7,10.7,0,0,1,.88-.9h0c.17-.16.38-.33.61-.53l.39-.26h0a15.19,15.19,0,0,1,1.44-.78l.09,0,.31-.18.43-.15h0c.36-.11.71-.21,1.07-.29l.18,0h.08a1,1,0,0,0,.24,0l.36-.09c.22,0,.44,0,.66,0H79.12L70.25,31,57.65,34c.11-.21.22-.41.35-.62Z"/><path class="cls-1" d="M534.07,128.39a4,4,0,0,1-1.23-2.95V70.29a4.16,4.16,0,0,1,1.23-3A3.93,3.93,0,0,1,537,66h36.43a4,4,0,0,1,4,4,3.71,3.71,0,0,1-1.18,2.77,3.93,3.93,0,0,1-2.82,1.14H542.38A1,1,0,0,0,541.29,75V93.83h28.89a4,4,0,0,1,4,4,3.71,3.71,0,0,1-1.18,2.77,3.93,3.93,0,0,1-2.82,1.14H541.29v18.9a1,1,0,0,0,1.09,1.09h31.07a4,4,0,0,1,4,4,3.75,3.75,0,0,1-1.18,2.78,4,4,0,0,1-2.82,1.13H537A4,4,0,0,1,534.07,128.39Z"/><path class="cls-1" d="M587.67,128.89a4.44,4.44,0,0,1-1-3.08,4.83,4.83,0,0,1,.91-2.64l14.08-16.53L587.53,89.56a4.38,4.38,0,0,1-1-2.73,4,4,0,0,1,1.23-3,4.13,4.13,0,0,1,3-1.18,4,4,0,0,1,3.36,1.55L606.7,99.82,619.24,84.2a4.05,4.05,0,0,1,3.27-1.55,4.28,4.28,0,0,1,3,1.14,3.72,3.72,0,0,1,1.23,2.86,4.72,4.72,0,0,1-.91,2.63l-14.35,16.81,14.17,17a4.09,4.09,0,0,1,1,2.73,4.26,4.26,0,0,1-1.18,3,4,4,0,0,1-3.09,1.28,4,4,0,0,1-3.27-1.64l-12.81-15.35-12.08,15.17a4.34,4.34,0,0,1-3.64,1.82A3.72,3.72,0,0,1,587.67,128.89Z"/><path class="cls-1" d="M639.55,149.7a4.18,4.18,0,0,1-1.23-3V86.83a4.2,4.2,0,0,1,4.18-4.18,4.18,4.18,0,0,1,3,1.23,4,4,0,0,1,1.27,3V89a21.37,21.37,0,0,1,34.48,4.54,26.64,26.64,0,0,1,3,12.81,25.21,25.21,0,0,1-3.09,12.81,22.15,22.15,0,0,1-8.13,8.41,21.2,21.2,0,0,1-10.86,3,20.72,20.72,0,0,1-15.44-6.81v23A4.19,4.19,0,0,1,642.5,151,3.93,3.93,0,0,1,639.55,149.7Zm32.34-31.39q3.95-4.32,4-12c0-5.08-1.32-9.07-4-11.94S665.63,90.1,661,90.1a17.2,17.2,0,0,0-7.68,1.82,23.11,23.11,0,0,0-6.58,4.9V115.9a23,23,0,0,0,6.58,4.91,17.2,17.2,0,0,0,7.68,1.82Q667.93,122.63,671.89,118.31Z"/><path class="cls-1" d="M699.05,124.17q-6.22-6.36-6.22-17.81a31,31,0,0,1,2.36-11.9,19.84,19.84,0,0,1,7.45-9,21.41,21.41,0,0,1,12-3.27,21.81,21.81,0,0,1,11.72,3.09,21,21,0,0,1,7.36,8.31,25.29,25.29,0,0,1,2.64,11.58,4.12,4.12,0,0,1-4.27,4.18H701.37q.81,6.45,4.86,9.86t10.95,3.41a27.73,27.73,0,0,0,6.49-.69,26.48,26.48,0,0,0,5.77-2.13,3.32,3.32,0,0,1,1.64-.36,3.75,3.75,0,0,1,2.59,1,3.4,3.4,0,0,1,1.13,2.59c0,1.39-.81,2.54-2.45,3.45a34.11,34.11,0,0,1-7.27,3.05,33.27,33.27,0,0,1-8.63.95Q705.28,130.53,699.05,124.17Zm28.85-22.89a12,12,0,0,0-2.18-6.09,12.88,12.88,0,0,0-5-4.36,13.75,13.75,0,0,0-6.14-1.46,15.39,15.39,0,0,0-6.08,1.37,12,12,0,0,0-5,4.58,15.43,15.43,0,0,0-2.13,7.14h25.44A1,1,0,0,0,727.9,101.28Z"/><path class="cls-1" d="M748.29,128.85a4,4,0,0,1-1.22-2.95v-39a4.21,4.21,0,0,1,1.22-3,4,4,0,0,1,3-1.27,4.34,4.34,0,0,1,4.27,4.27v3.63q6.27-8.35,14.17-8.35h.45a3.91,3.91,0,0,1,2.91,1.22,4.11,4.11,0,0,1,1.18,3A3.76,3.76,0,0,1,773,89.24a4.31,4.31,0,0,1-3,1.13h-.45a15.52,15.52,0,0,0-7.86,2,18.08,18.08,0,0,0-6.13,5.86V125.9a4,4,0,0,1-1.27,2.95,4.18,4.18,0,0,1-3,1.23A4,4,0,0,1,748.29,128.85Z"/><path class="cls-1" d="M782.55,72.43a4.53,4.53,0,0,1-1.41-3.32v-.36A4.8,4.8,0,0,1,785.86,64h.55a4.8,4.8,0,0,1,4.72,4.72v.36a4.82,4.82,0,0,1-4.72,4.73h-.55A4.51,4.51,0,0,1,782.55,72.43Zm.54,56.42a4,4,0,0,1-1.23-2.95v-39a4.18,4.18,0,0,1,1.23-3A4,4,0,0,1,786,82.65a4.19,4.19,0,0,1,4.27,4.27v39a3.94,3.94,0,0,1-1.27,2.95,4.18,4.18,0,0,1-3,1.23A4,4,0,0,1,783.09,128.85Z"/><path class="cls-1" d="M807.89,124.17q-6.23-6.36-6.22-17.81A31,31,0,0,1,804,94.46a19.84,19.84,0,0,1,7.45-9,21.41,21.41,0,0,1,12-3.27,21.81,21.81,0,0,1,11.72,3.09,21,21,0,0,1,7.36,8.31,25.29,25.29,0,0,1,2.64,11.58,4.12,4.12,0,0,1-4.27,4.18H810.21c.55,4.3,2.16,7.59,4.86,9.86s6.35,3.41,10.95,3.41a27.73,27.73,0,0,0,6.49-.69,26.48,26.48,0,0,0,5.77-2.13,3.32,3.32,0,0,1,1.64-.36,3.75,3.75,0,0,1,2.59,1,3.4,3.4,0,0,1,1.13,2.59c0,1.39-.81,2.54-2.45,3.45a34.11,34.11,0,0,1-7.27,3.05,33.27,33.27,0,0,1-8.63.95Q814.12,130.53,807.89,124.17Zm28.85-22.89a12,12,0,0,0-2.18-6.09,12.88,12.88,0,0,0-4.95-4.36,13.75,13.75,0,0,0-6.14-1.46,15.43,15.43,0,0,0-6.08,1.37,11.92,11.92,0,0,0-5,4.58,15.32,15.32,0,0,0-2.14,7.14h25.44A1,1,0,0,0,836.74,101.28Z"/><path class="cls-1" d="M857.14,128.85a4,4,0,0,1-1.23-2.95v-39a4.18,4.18,0,0,1,1.23-3,4,4,0,0,1,3-1.27,4.34,4.34,0,0,1,4.27,4.27v3.45a29,29,0,0,1,7.72-6.08,19.22,19.22,0,0,1,9.09-2.09A16.36,16.36,0,0,1,890,84.56,15.49,15.49,0,0,1,895.57,91a20.8,20.8,0,0,1,1.95,9.08V125.9a4,4,0,0,1-1.27,2.95,4.18,4.18,0,0,1-3,1.23,4.2,4.2,0,0,1-4.18-4.18V101q0-11-9.9-11a14.57,14.57,0,0,0-7.86,2.18,28.68,28.68,0,0,0-6.95,6.45V125.9a4,4,0,0,1-1.27,2.95,4.18,4.18,0,0,1-3,1.23A4,4,0,0,1,857.14,128.85Z"/><path class="cls-1" d="M920.69,127.62a22.17,22.17,0,0,1-9-8.54,26.41,26.41,0,0,1,.09-25.62,22.73,22.73,0,0,1,8.77-8.31,25.38,25.38,0,0,1,12.22-3,25.77,25.77,0,0,1,8,1.13,33.29,33.29,0,0,1,6.91,3.23,3.86,3.86,0,0,1,1.82,3.27,3.7,3.7,0,0,1-1.09,2.54,3.28,3.28,0,0,1-2.46,1.18,4.59,4.59,0,0,1-2-.54,32.78,32.78,0,0,0-5.27-2.27,17.73,17.73,0,0,0-5.17-.64q-7.63,0-12.13,4.41t-4.5,11.85q0,7.45,4.5,11.86t12.13,4.41a18.08,18.08,0,0,0,5.17-.64,32.78,32.78,0,0,0,5.27-2.27,4.62,4.62,0,0,1,2-.55,3.32,3.32,0,0,1,2.46,1.18,3.74,3.74,0,0,1,1.09,2.55,3.86,3.86,0,0,1-1.82,3.27,33.24,33.24,0,0,1-6.91,3.22,25.46,25.46,0,0,1-8,1.14A25.92,25.92,0,0,1,920.69,127.62Z"/><path class="cls-1" d="M962.71,124.17q-6.23-6.36-6.23-17.81a31,31,0,0,1,2.36-11.9,19.84,19.84,0,0,1,7.45-9,21.42,21.42,0,0,1,12-3.27A21.86,21.86,0,0,1,990,85.29a21.17,21.17,0,0,1,7.36,8.31,25.41,25.41,0,0,1,2.63,11.58,4.12,4.12,0,0,1-4.27,4.18H965q.83,6.45,4.86,9.86t11,3.41a27.88,27.88,0,0,0,6.5-.69,26.68,26.68,0,0,0,5.77-2.13,3.25,3.25,0,0,1,1.63-.36,3.75,3.75,0,0,1,2.59,1,3.38,3.38,0,0,1,1.14,2.59q0,2.08-2.46,3.45a33.9,33.9,0,0,1-7.27,3.05,33.21,33.21,0,0,1-8.63.95Q968.93,130.53,962.71,124.17Zm28.84-22.89a12,12,0,0,0-2.18-6.09,12.81,12.81,0,0,0-5-4.36,13.71,13.71,0,0,0-6.13-1.46,15.44,15.44,0,0,0-6.09,1.37,11.92,11.92,0,0,0-5,4.58,15.43,15.43,0,0,0-2.14,7.14h25.44A1,1,0,0,0,991.55,101.28Z"/><path class="cls-1" d="M236.75,127.94a4,4,0,0,1-1.23-3V70.59a6,6,0,0,1,1.77-4.29,5.75,5.75,0,0,1,4.24-1.82h1.18a6.37,6.37,0,0,1,5.1,2.74l33.62,48.55c.31.37.55.55.73.55s.24-.09.36-.27a1.1,1.1,0,0,0,.19-.64V68.76a4.18,4.18,0,0,1,1.23-3,4,4,0,0,1,3-1.28,4.37,4.37,0,0,1,4.28,4.28v54.39a5.75,5.75,0,0,1-1.82,4.24,6,6,0,0,1-4.28,1.78H284a5.93,5.93,0,0,1-2.78-.69,6.22,6.22,0,0,1-2.14-1.77l-33.8-48.84q-.45-.54-.72-.54c-.13,0-.25.09-.37.27a1.14,1.14,0,0,0-.18.64V125a4,4,0,0,1-1.28,3,4.18,4.18,0,0,1-3,1.23A4,4,0,0,1,236.75,127.94Z"/><path class="cls-1" d="M320.52,125.61A28.51,28.51,0,0,1,309,114.13a35.12,35.12,0,0,1-4.14-17.31A34.91,34.91,0,0,1,309,79.42,28.64,28.64,0,0,1,320.38,68a33.41,33.41,0,0,1,16.44-4,39.84,39.84,0,0,1,10.84,1.36,44.92,44.92,0,0,1,9.94,4.28,3.62,3.62,0,0,1,2.09,3.56,3.47,3.47,0,0,1-1.05,2.46A3.55,3.55,0,0,1,356,76.78a3.35,3.35,0,0,1-1.64-.36,40.53,40.53,0,0,0-8-3.24,32.77,32.77,0,0,0-8.66-1.05,25.57,25.57,0,0,0-13.21,3.19,21.5,21.5,0,0,0-8.24,8.7,27.26,27.26,0,0,0-2.87,12.8,26.94,26.94,0,0,0,2.82,12.67,20.31,20.31,0,0,0,8.38,8.88,26.29,26.29,0,0,0,13.12,3.14,32.77,32.77,0,0,0,8.66-1.05,39.86,39.86,0,0,0,8-3.23,3.35,3.35,0,0,1,1.64-.36,3.66,3.66,0,0,1,2.69,1,3.43,3.43,0,0,1,1.05,2.51A3.72,3.72,0,0,1,357.6,124a44.45,44.45,0,0,1-9.94,4.28,39.44,39.44,0,0,1-10.84,1.37A32.82,32.82,0,0,1,320.52,125.61Z"/><path class="cls-1" d="M373.22,127.94a4,4,0,0,1-1.23-3V68.76a4.18,4.18,0,0,1,1.23-3,4,4,0,0,1,3-1.28,4.15,4.15,0,0,1,3,1.28,4.1,4.1,0,0,1,1.27,3V97.55l31-31.61a4.2,4.2,0,0,1,6-.41,3.48,3.48,0,0,1,1.14,2.69,4.34,4.34,0,0,1-1,2.91L396.5,92l24.14,30.33a4.58,4.58,0,0,1,1,2.92,3.65,3.65,0,0,1-1.23,2.78,4.14,4.14,0,0,1-2.87,1.14,4.23,4.23,0,0,1-3.37-1.64L390.76,97.64l-10.3,10.3v17a4,4,0,0,1-1.27,3,4.22,4.22,0,0,1-3,1.23A4,4,0,0,1,373.22,127.94Z"/><path class="cls-1" d="M446.33,126.89a22.89,22.89,0,0,1-10-8.57,24.31,24.31,0,0,1-3.74-13.57v-36a4.18,4.18,0,0,1,1.23-3,4,4,0,0,1,3-1.28,4.37,4.37,0,0,1,4.29,4.28V105a15.64,15.64,0,0,0,2.55,9.2,15.35,15.35,0,0,0,6.42,5.7,20,20,0,0,0,8.79,2,20.4,20.4,0,0,0,8.75-1.92,15.09,15.09,0,0,0,6.65-5.87,17,17,0,0,0,2.37-9.07V68.76a4.18,4.18,0,0,1,1.23-3,4,4,0,0,1,3-1.28,4.37,4.37,0,0,1,4.28,4.28v36a23.18,23.18,0,0,1-13.53,22,30,30,0,0,1-25.19.09Z"/></svg>