<svg id="圖層_1" data-name="圖層 1" xmlns="http://www.w3.org/2000/svg" viewBox="0 0 1000 200"><defs><style>.cls-1{fill:#e4585d;}</style></defs><path class="cls-1" d="M285.86,44.92H336a6.36,6.36,0,0,0,4.55-1.83,6,6,0,0,0,1.9-4.47A6.5,6.5,0,0,0,336,32.16H277.2a6.4,6.4,0,0,0-4.76,2.05,6.76,6.76,0,0,0-2,4.84v89a6.76,6.76,0,0,0,6.74,6.74H336a6.36,6.36,0,0,0,4.55-1.83,6,6,0,0,0,1.9-4.48,6.5,6.5,0,0,0-6.45-6.45H285.86a1.55,1.55,0,0,1-1.76-1.76V89.8h46.64A6.32,6.32,0,0,0,335.28,88a6,6,0,0,0,1.91-4.47A6.52,6.52,0,0,0,330.74,77H284.1V46.68A1.55,1.55,0,0,1,285.86,44.92Z"/><path class="cls-1" d="M393.66,87.46H365.94a5.72,5.72,0,0,0-4.33,1.76,6.12,6.12,0,0,0-1.68,4.4,6,6,0,0,0,6,6h27.72a6.08,6.08,0,0,0,4.4-1.69,5.72,5.72,0,0,0,1.76-4.32,6.25,6.25,0,0,0-6.16-6.16Z"/><path class="cls-1" d="M477.12,62.82a33.7,33.7,0,0,0-17.31-4.55q-14.37,0-24.94,11V65.75A6.38,6.38,0,0,0,432.82,61,6.74,6.74,0,0,0,428,59a6.76,6.76,0,0,0-6.75,6.75v96.66a6.77,6.77,0,0,0,2,4.84A6.42,6.42,0,0,0,428,169.3a6.76,6.76,0,0,0,6.89-6.89V125.3q10.56,11,24.94,11a34.09,34.09,0,0,0,17.53-4.77A35.69,35.69,0,0,0,490.46,118q5-8.64,5-20.68a42.9,42.9,0,0,0-4.91-20.68A33.53,33.53,0,0,0,477.12,62.82Zm-1.69,53.75q-6.37,7-17.53,7a27.59,27.59,0,0,1-12.39-2.94,36.89,36.89,0,0,1-10.64-7.92V81.88A37.26,37.26,0,0,1,445.51,74,27.71,27.71,0,0,1,457.9,71q11.14,0,17.53,7t6.38,19.28Q481.81,109.61,475.43,116.57Z"/><path class="cls-1" d="M566.59,63.11a42.49,42.49,0,0,0-39.39,0A33.12,33.12,0,0,0,513.93,76.9a43.19,43.19,0,0,0-4.69,20.38,42.88,42.88,0,0,0,4.69,20.24,34.19,34.19,0,0,0,13.2,13.94,42.47,42.47,0,0,0,39.38,0,33.8,33.8,0,0,0,13.42-13.94,42.32,42.32,0,0,0,4.7-20.24A42.8,42.8,0,0,0,579.93,77,34.05,34.05,0,0,0,566.59,63.11Zm1,48.91a21.53,21.53,0,0,1-9.09,9,25.6,25.6,0,0,1-11.59,2.79A24.51,24.51,0,0,1,535,120.9a21.8,21.8,0,0,1-8.58-8.66q-3.52-5.71-3.52-15.1,0-8.81,3.37-14.82a21.64,21.64,0,0,1,9.1-8.94,26.71,26.71,0,0,1,11.58-2.64,24.44,24.44,0,0,1,12,2.93,22.19,22.19,0,0,1,8.58,8.51q3.51,5.71,3.52,15Q571,105.93,567.61,112Z"/><path class="cls-1" d="M640.22,58.27h-.74q-12.76,0-22.88,13.49V65.9a7,7,0,0,0-6.89-6.9,6.39,6.39,0,0,0-4.77,2.06,6.74,6.74,0,0,0-2,4.84v62.92a6.76,6.76,0,0,0,6.75,6.74,6.72,6.72,0,0,0,4.84-2,6.36,6.36,0,0,0,2.05-4.76V84.23a29.39,29.39,0,0,1,9.9-9.46,25.18,25.18,0,0,1,12.69-3.3h.73a7,7,0,0,0,4.92-1.83,6.05,6.05,0,0,0,2-4.62,6.64,6.64,0,0,0-1.91-4.77A6.26,6.26,0,0,0,640.22,58.27Z"/><path class="cls-1" d="M695.36,123a13.51,13.51,0,0,0-2.49.29.6.6,0,0,1-.44.15,19.27,19.27,0,0,1-5.87.88c-3.13,0-5.47-.59-7-1.76s-2.34-3.47-2.34-6.89V72.2H693.6a5.51,5.51,0,0,0,4.18-1.76,5.72,5.72,0,0,0,1.69-4.1,5.77,5.77,0,0,0-5.87-5.87H677.18V50.06A7,7,0,0,0,675.42,45a6.58,6.58,0,0,0-5-1.84,7,7,0,0,0-5.06,1.76,6.81,6.81,0,0,0-1.83,5.14V60.47H656.2a5.88,5.88,0,1,0,0,11.73h7.34v44.59q0,19.52,21.56,19.51a28.68,28.68,0,0,0,12.17-2.64q3.53-1.91,3.52-5.28a5.5,5.5,0,0,0-5.43-5.43Z"/><path class="cls-1" d="M737.09,42q2.71-2.94,9.17-2.94l4,.44a13.6,13.6,0,0,0,3.37.45,5.23,5.23,0,0,0,3.89-1.77,5.59,5.59,0,0,0,1.69-4c0-2.14-1.18-3.9-3.52-5.27A29.31,29.31,0,0,0,742.89,26,22.84,22.84,0,0,0,732,28.71a19.54,19.54,0,0,0-8,8.15q-3.23,5.56-3.22,14.52v8.36h-8.51a5.79,5.79,0,0,0-4.11,1.68,5.76,5.76,0,0,0,0,8.29,5.67,5.67,0,0,0,4.11,1.76h8.51v57.35a6.76,6.76,0,0,0,6.74,6.74,6.74,6.74,0,0,0,4.85-2,6.4,6.4,0,0,0,2-4.76V71.47h18.19a5.58,5.58,0,0,0,4.18-1.76,5.83,5.83,0,0,0-4.18-10H734.38V51.82Q734.38,44.92,737.09,42Z"/><path class="cls-1" d="M899.09,44.78H900a7.79,7.79,0,0,0,7.63-7.63v-.59A7.77,7.77,0,0,0,900,28.94h-.88a7.77,7.77,0,0,0-7.63,7.62v.59a7.79,7.79,0,0,0,7.63,7.63Z"/><path class="cls-1" d="M995.31,77A34,34,0,0,0,982,63.11a39,39,0,0,0-19.65-4.84,39.41,39.41,0,0,0-19.73,4.84A33.14,33.14,0,0,0,929.3,76.9a39.74,39.74,0,0,0-3.61,10c-.15.72-.3,1.44-.42,2.18s-.22,1.46-.31,2.21a117.2,117.2,0,0,0-18.68-5.77V65.9a6.76,6.76,0,0,0-6.9-6.9,6.37,6.37,0,0,0-4.76,2.06,6.74,6.74,0,0,0-2,4.84V83.4c-3.26-.31-6.64-.5-10.15-.53h-.89a114.94,114.94,0,0,0-11.84.62V33.63a6.76,6.76,0,0,0-6.9-6.9,6.37,6.37,0,0,0-4.76,2.06,6.74,6.74,0,0,0-2,4.84v52.1a116.54,116.54,0,0,0-18.65,5.89c-.08-.75-.18-1.48-.3-2.21s-.26-1.47-.42-2.19A39.19,39.19,0,0,0,833.09,77a34,34,0,0,0-13.35-13.86,39,39,0,0,0-19.65-4.84,39.41,39.41,0,0,0-19.73,4.84A33.06,33.06,0,0,0,767.09,76.9a43.08,43.08,0,0,0-4.7,20.38,42.76,42.76,0,0,0,4.7,20.24,34.06,34.06,0,0,0,13.2,13.94,42.47,42.47,0,0,0,39.38,0,33.86,33.86,0,0,0,13.42-13.94,38.18,38.18,0,0,0,3.39-9c.22-.89.41-1.79.58-2.71s.27-1.71.37-2.58a105.87,105.87,0,0,1,18.69-6.58v32.16a6.76,6.76,0,0,0,6.74,6.74,6.7,6.7,0,0,0,4.84-2,6.37,6.37,0,0,0,2.06-4.76V94.19a103.61,103.61,0,0,1,11.82-.68h.83c3.55,0,7,.24,10.23.58v34.73a6.76,6.76,0,0,0,6.74,6.74,6.7,6.7,0,0,0,4.84-2,6.37,6.37,0,0,0,2.06-4.76V96.46a105.73,105.73,0,0,1,18.63,6.4c.1.86.22,1.72.36,2.56s.33,1.79.54,2.67a39.46,39.46,0,0,0,3.49,9.43,34.15,34.15,0,0,0,13.21,13.94,42.47,42.47,0,0,0,39.38,0,33.86,33.86,0,0,0,13.42-13.94A42.31,42.31,0,0,0,1000,97.28,42.79,42.79,0,0,0,995.31,77ZM824,100.72a28,28,0,0,1-3.21,11.3,21.5,21.5,0,0,1-9.1,9,25.53,25.53,0,0,1-11.58,2.79,24.55,24.55,0,0,1-12-2.93,21.8,21.8,0,0,1-8.58-8.66Q776,106.53,776,97.14q0-8.81,3.38-14.82a21.62,21.62,0,0,1,9.09-8.94,26.75,26.75,0,0,1,11.59-2.64A24.4,24.4,0,0,1,812,73.67a22.06,22.06,0,0,1,8.58,8.51,25.33,25.33,0,0,1,3.34,11c.07.78.12,1.58.14,2.4,0,.25,0,.5,0,.75s0,.5,0,.76C824.14,98.37,824.08,99.56,824,100.72ZM983,112a21.5,21.5,0,0,1-9.1,9,25.56,25.56,0,0,1-11.58,2.79,24.55,24.55,0,0,1-12-2.93,21.8,21.8,0,0,1-8.58-8.66A24.88,24.88,0,0,1,938.52,102a41.29,41.29,0,0,1-.25-4.13c0-.24,0-.47,0-.72,0-.66,0-1.3,0-1.93,0-.81.09-1.61.17-2.38a27.11,27.11,0,0,1,3.16-10.51,21.56,21.56,0,0,1,9.09-8.94,26.75,26.75,0,0,1,11.59-2.64,24.4,24.4,0,0,1,12,2.93,22.06,22.06,0,0,1,8.58,8.51q3.52,5.71,3.52,15A30.39,30.39,0,0,1,983,112Z"/><path class="cls-1" d="M850.7,158.76h0a2.58,2.58,0,0,0-.17-.41l0,.07C850.61,158.53,850.66,158.65,850.7,158.76Z"/><path class="cls-1" d="M918.29,147.75c-2.69-.61-6.13.81-6.7,3.8a38.26,38.26,0,0,1-1.23,4.82c-.23.71-.5,1.4-.76,2.09l-.12.3c-.18.39-.37.79-.56,1.18a37.81,37.81,0,0,1-2.42,4.18c-.24.36-.48.71-.73,1.06l-.33.44-.4.5q-.46.57-1,1.11a37.06,37.06,0,0,1-3.4,3.35l-.84.71-.27.2c-.63.45-1.25.9-1.89,1.32a37.13,37.13,0,0,1-4.17,2.35l-1,.47-.07,0c-.81.3-1.61.61-2.44.88a36.45,36.45,0,0,1-4.71,1.18l-1,.17-.37,0c-.82.08-1.65.14-2.48.17a37.77,37.77,0,0,1-5-.15l-.42,0c-.31-.06-.65-.09-.95-.14-.86-.16-1.72-.34-2.57-.55a46.65,46.65,0,0,1-4.61-1.48l-.09,0-1-.45c-.77-.37-1.54-.76-2.29-1.19a40.25,40.25,0,0,1-4-2.6h0l0,0-.85-.7q-1-.84-1.89-1.74c-.66-.64-1.29-1.31-1.9-2-.28-.32-.56-.65-.83-1l-.22-.27a44.82,44.82,0,0,1-2.85-4.45c-.45-.82-.86-1.65-1.25-2.5,0,.06,0,0-.11-.26l0-.08a1.51,1.51,0,0,0-.09-.18l.06.11c-.15-.42-.32-.84-.47-1.26a39.31,39.31,0,0,1-1.47-5.54c-.53-2.8-4.06-4.66-6.7-3.8a5.59,5.59,0,0,0-3.8,6.7A42.78,42.78,0,0,0,910,176.79a42.59,42.59,0,0,0,12.09-22.34C922.62,151.66,921.31,148.44,918.29,147.75ZM875.8,177.88Z"/><circle class="cls-1" cx="789.03" cy="100.64" r="6.18" transform="translate(-5.15 56.19) rotate(-4.07)"/><circle class="cls-1" cx="950.34" cy="100.64" r="6.18" transform="matrix(0.1, -1, 1, 0.1, 756.55, 1036.44)"/><polygon class="cls-1" points="2.14 112.45 2.14 112.45 2.14 112.45 2.14 112.45"/><path class="cls-1" d="M203.7,34.54h0a17.75,17.75,0,0,0-5.6-9.73,18.66,18.66,0,0,0-10.83-4.62c-.62-.06-1.23-.07-1.82-.07h-5.82a18.47,18.47,0,0,0-10.14-9.08,16.93,16.93,0,0,0-6-1.05,20.11,20.11,0,0,0-4.45.51l-1.46.34h0l-7.47,1.73-12.3,2.84L122.23,19l-4.76,1.1H72.78c-1.55,0-3.16-.06-4.79-.06a31.8,31.8,0,0,0-5.66.42A17.8,17.8,0,0,0,52.53,26a18.55,18.55,0,0,0-4.66,10.24l-1.44.33h0l-4.19,1h0a17.94,17.94,0,0,0-9.71,6h0a18.58,18.58,0,0,0-4.22,11.76,20,20,0,0,0,.28,3.26c.3,1.77.78,3.47,1.16,5.11l2,8.6c.08.32.15.63.22.94a17.93,17.93,0,0,0-7.94,5A18.62,18.62,0,0,0,19.27,89a22.1,22.1,0,0,0-.1,2.28c0,.75,0,1.48,0,2.19v9.42h-.93a18.32,18.32,0,0,0-16.12,9.59A18.83,18.83,0,0,0,0,121.23v31.33a4.53,4.53,0,0,0,1.25,3.06A4.23,4.23,0,0,0,4.3,157h.18a4.75,4.75,0,0,0,3.06-1.31,4.36,4.36,0,0,0,1.32-3.12V121.29c0-.52,0-1.05.07-1.61,0-.16.07-.32.1-.48H9c.09-.4.19-.78.31-1.16.05-.16.11-.32.17-.48.21-.4.34-.75.46-1s.36-.63.56-.93h0l.26-.37v0a13.1,13.1,0,0,1,1.58-1.58l.23-.16.14-.12h0c.32-.22.66-.42,1-.61s.53-.26.84-.42l.59-.2a10,10,0,0,1,1.07-.29l.54-.11h0c.47,0,.91-.07,1.33-.07H138.72a5.44,5.44,0,0,1,.57,0h.06a20.5,20.5,0,0,1,2.11.51l.4.15c.35.17.69.34,1,.52s.61.38.91.58l.05,0,.39.32a17.29,17.29,0,0,1,1.44,1.5h0l.3.43c.21.33.41.67.59,1l.23.47c.13.39.27.72.34,1a9.47,9.47,0,0,1,.27,1.08c0,.1,0,.22.07.35s0,.17,0,.22h0c0,.45,0,.91,0,1.39v31.22a4.58,4.58,0,0,0,1.25,3.06,4.25,4.25,0,0,0,3.06,1.37H152a4.72,4.72,0,0,0,3.06-1.31,4.28,4.28,0,0,0,1.32-3.12V121.19a18.13,18.13,0,0,0-11.65-17.12,20.59,20.59,0,0,0-7.8-1.21H28.05V91.72c0-.85,0-1.68.07-2.49,0-.09,0-.18,0-.25h0c.07-.36.16-.72.26-1.07h0c.09-.31.21-.63.33-1l.19-.41h0c.17-.32.34-.63.53-.94h0l.27-.37a4.21,4.21,0,0,0,.32-.47l.16-.2c.28-.31.57-.61.87-.89h0l.61-.52.39-.27h0c.4-.26.9-.49,1.45-.77l.08,0,.31-.17a3.81,3.81,0,0,1,.44-.15h0a10,10,0,0,1,1.07-.29h0a.71.71,0,0,1,.17,0h.09a1.84,1.84,0,0,0,.23,0l.37-.1.65,0H157.62c.33,0,.69,0,1.07.06l.45.09a16.8,16.8,0,0,1,1.62.51l.11,0,.36.09.36.18h0q.39.21.78.45h0a3.43,3.43,0,0,1,.31.21.47.47,0,0,0,.09.1l.16.13.32.17.35.31c.33.3.65.67,1,1.06l0,.05a.64.64,0,0,0,.1.13l.25.31.12.15,0,.06h0c.21.33.41.67.59,1h0l.18.35A1.63,1.63,0,0,0,166,87l.06.18a1,1,0,0,0,.09.17l0,0,0,.16a9.77,9.77,0,0,1,.29,1.06c0,.18.08.37.12.55h0v0c.06.75.06,1.52.06,2.32v35.1A4.54,4.54,0,0,0,168,129.7a4.21,4.21,0,0,0,3.06,1.37h.17a4.67,4.67,0,0,0,3.06-1.31,4.25,4.25,0,0,0,1.32-3.12V95c0-.93,0-1.87,0-2.83a28.38,28.38,0,0,0-.41-5.4,17.88,17.88,0,0,0-5.6-9.73,18.66,18.66,0,0,0-10.83-4.62c-.61,0-1.21-.06-1.8-.06H44.25c-1.11,0-2.25,0-3.41-.05l-2.55-11c-.39-1.68-.84-3.32-1.11-4.92h0c0-.24,0-.46,0-.66s0-.35,0-.52c0-.35,0-.7.05-1.05v-.18l.05-.27,0-.17a10.94,10.94,0,0,1,.37-1.39c0-.17.13-.35.2-.56l.06-.14c.21-.42.44-.84.69-1.24h0c.12-.2.25-.4.39-.59l.07-.1c.31-.36.61-.7.92-1a5.92,5.92,0,0,1,.45-.41h0l0,0,.09-.05a1,1,0,0,0,.17-.13l.2-.17.08-.06,0,0c.22-.15.46-.3.7-.44h0a11.35,11.35,0,0,1,1.05-.54l.14-.06c.26-.1.53-.19.8-.27h0c.29-.08.59-.16.91-.23h0l1.6-.37h0l2.7-.63h0l3.43-.79h0l1.45-.34h0l2-.45,10.32-2.39h0l15.53-3.59,17.32-4,17.64-4.07h0l2-.45h0l14.49-3.35h0l.36-.08h0L147,22.39h0l1.25-.29h0l8.66-2c1.49-.34,3-.69,4.44-1h0l.1,0h0l.33-.07h0l.48-.08.31,0h0c.28,0,.57,0,.85,0h.63l.62.05.1,0h0a11.69,11.69,0,0,1,1.3.31l.68.22h0l.21.08c.4.2.77.37,1.1.56l.6.38h0l.27.19.16.12.07.05.1.08.53.48.4.41h0c.19.22.39.43.57.65l0,0h0c.14.2.28.4.4.6a13.38,13.38,0,0,1,.71,1.28l0,.12.15.41h0l.05.14c.12.37.23.76.32,1.16.16.66.32,1.34.47,2s.38,1.63.56,2.44L176.14,42l3.63,15.71q1.69,7.28,3.37,14.56l.69,3q2,8.46,3.91,16.9,1.57,6.86,3.16,13.7l1.68,7.23c0,.25.11.49.16.73s.17.71.25,1.07a4.17,4.17,0,0,0,1.62,2.39,4.62,4.62,0,0,0,2.69.92,3.75,3.75,0,0,0,1.19-.19,4.65,4.65,0,0,0,2.33-1.65,4.55,4.55,0,0,0,.73-3.74c-.33-1.47-.67-2.93-1-4.39L197.9,96.76q-1.85-8-3.69-16l-1.83-7.9q-1.12-4.92-2.27-9.84-2-8.49-3.92-17L183,32.44c-.27-1.15-.54-2.3-.8-3.45h3.9c.34,0,.69,0,1.07.07l.46.08h0c.45.09,1,.31,1.61.51a2.82,2.82,0,0,0,.27.09l.2.05a3,3,0,0,1,.36.18c.27.14.53.29.78.44l.31.22.09.1.17.12.31.18.36.31h0c.32.29.64.67,1,1.06l0,.05.09.13.25.3.13.16,0,.05v0h0c.21.33.41.66.59,1l.18.36c0,.1.05.2.07.27l.06.18a1.26,1.26,0,0,0,.1.18l0,0a1.38,1.38,0,0,0,.06.16h0c.11.35.21.71.29,1.07,0,.18.08.36.11.54h0V37c.06.74.07,1.5.07,2.29V74.4a4.49,4.49,0,0,0,1.25,3.06,4.2,4.2,0,0,0,3,1.38h.17a4.71,4.71,0,0,0,3.07-1.3,4.37,4.37,0,0,0,1.32-3.13V42.76c0-.93,0-1.87,0-2.82A27.59,27.59,0,0,0,203.7,34.54ZM58,33.33c0-.07.14-.2.26-.36a5.41,5.41,0,0,0,.32-.47l.16-.2a10.7,10.7,0,0,1,.88-.9h0c.17-.16.38-.33.61-.53l.39-.26h0a15.19,15.19,0,0,1,1.44-.78l.09,0,.31-.18.43-.15h0c.36-.11.71-.21,1.07-.29l.18,0h.08a1,1,0,0,0,.24,0l.36-.09c.22,0,.44,0,.66,0H79.12L70.25,31,57.65,34c.11-.21.22-.41.35-.62Z"/></svg>