<svg width="304" height="60" viewBox="0 0 304 60" fill="none" xmlns="http://www.w3.org/2000/svg">
<g clip-path="url(#clip0)">
<path d="M86.9015 13.476H102.144C102.4 13.4794 102.654 13.4327 102.891 13.3384C103.129 13.2442 103.345 13.1043 103.527 12.927C103.713 12.7556 103.86 12.5477 103.96 12.3168C104.059 12.0859 104.109 11.837 104.105 11.586C104.102 11.0735 103.894 10.5829 103.527 10.2202C103.16 9.85752 102.663 9.65198 102.144 9.64805H84.2688C83.9975 9.64532 83.7286 9.69862 83.4794 9.80453C83.2302 9.91045 83.0062 10.0666 82.8218 10.263C82.6277 10.453 82.4739 10.6793 82.3695 10.9286C82.2651 11.1779 82.2122 11.4453 82.2138 11.715V38.4151C82.2154 38.9508 82.4318 39.4642 82.8157 39.8431C83.1996 40.2219 83.7198 40.4355 84.2627 40.4371H102.144C102.4 40.4404 102.654 40.3937 102.891 40.2994C103.129 40.2052 103.345 40.0654 103.527 39.8881C103.713 39.7163 103.861 39.5079 103.96 39.2764C104.06 39.0449 104.109 38.7955 104.105 38.5441C104.101 38.0321 103.893 37.5422 103.526 37.1801C103.159 36.8181 102.663 36.613 102.144 36.6091H86.9015C86.8287 36.6197 86.7545 36.6133 86.6846 36.5905C86.6148 36.5678 86.5514 36.5292 86.4994 36.4779C86.4474 36.4265 86.4083 36.3639 86.3852 36.295C86.3621 36.2261 86.3557 36.1528 86.3664 36.0811V26.9401H100.545C100.8 26.9449 101.053 26.8996 101.29 26.8069C101.527 26.7142 101.743 26.5759 101.925 26.4001C102.111 26.2289 102.259 26.0211 102.359 25.7902C102.459 25.5592 102.509 25.3102 102.506 25.0591C102.507 24.5434 102.301 24.0483 101.934 23.6814C101.567 23.3145 101.067 23.1056 100.545 23.1001H86.3664V14.0041C86.3557 13.9323 86.3621 13.859 86.3852 13.7901C86.4083 13.7212 86.4474 13.6586 86.4994 13.6072C86.5514 13.5559 86.6148 13.5173 86.6846 13.4946C86.7545 13.4718 86.8287 13.4654 86.9015 13.476V13.476Z" fill="white"/>
<path d="M119.673 26.2379H111.246C111.001 26.2295 110.757 26.2721 110.53 26.3631C110.304 26.4541 110.099 26.5914 109.929 26.7659C109.76 26.9417 109.628 27.1489 109.54 27.3754C109.453 27.602 109.411 27.8435 109.419 28.0859C109.419 28.5633 109.611 29.0211 109.953 29.3587C110.295 29.6962 110.759 29.8859 111.243 29.8859H119.67C119.916 29.8935 120.161 29.8525 120.39 29.7655C120.62 29.6784 120.83 29.547 121.007 29.3789C121.184 29.2121 121.322 29.0104 121.415 28.7871C121.507 28.5638 121.55 28.3239 121.542 28.0829C121.535 27.5949 121.336 27.1289 120.986 26.7838C120.636 26.4388 120.164 26.2418 119.67 26.2349L119.673 26.2379Z" fill="white"/>
<path d="M145.045 18.8462C143.447 17.9314 141.629 17.4598 139.782 17.4812C136.87 17.4812 134.343 18.5812 132.201 20.7812V19.7252C132.203 19.4579 132.149 19.193 132.042 18.9475C131.935 18.7021 131.776 18.4816 131.577 18.3002C131.386 18.1091 131.158 17.9576 130.906 17.8545C130.654 17.7515 130.384 17.699 130.112 17.7002C129.568 17.701 129.047 17.9146 128.662 18.2941C128.277 18.6737 128.061 19.1883 128.06 19.7252V48.7232C128.059 48.9929 128.112 49.2602 128.216 49.5095C128.32 49.7588 128.474 49.9851 128.668 50.1752C128.852 50.3709 129.076 50.5267 129.325 50.6326C129.573 50.7384 129.841 50.7921 130.112 50.7902C130.389 50.7955 130.663 50.7456 130.92 50.6436C131.177 50.5416 131.41 50.3896 131.605 50.1966C131.801 50.0036 131.955 49.7736 132.058 49.5204C132.162 49.2672 132.212 48.9961 132.207 48.7232V37.5902C134.347 39.7902 136.874 40.8902 139.788 40.8902C141.663 40.8977 143.505 40.4031 145.118 39.4592C146.789 38.4824 148.165 37.0806 149.1 35.4002C150.113 33.6722 150.62 31.6042 150.62 29.1962C150.658 27.0373 150.144 24.9039 149.127 22.9922C148.207 21.2457 146.787 19.8041 145.045 18.8462V18.8462ZM144.531 34.9712C143.24 36.3712 141.463 37.0712 139.202 37.0712C137.894 37.071 136.604 36.769 135.435 36.1892C134.22 35.5965 133.124 34.7915 132.201 33.8132V24.5642C133.127 23.5919 134.223 22.7913 135.435 22.2002C136.603 21.6154 137.892 21.3072 139.202 21.3002C141.459 21.3002 143.236 22.0002 144.531 23.4002C145.826 24.8002 146.472 26.7282 146.47 29.1842C146.47 31.6502 145.824 33.5792 144.531 34.9712Z" fill="white"/>
<path d="M172.243 18.933C170.396 17.9792 168.341 17.481 166.256 17.481C164.171 17.481 162.117 17.9792 160.269 18.933C158.541 19.8902 157.138 21.3293 156.235 23.07C155.259 24.962 154.77 27.0615 154.809 29.184C154.773 31.2928 155.262 33.378 156.235 35.256C157.14 36.9996 158.533 38.4508 160.248 39.438C162.095 40.3919 164.148 40.8901 166.233 40.8901C168.318 40.8901 170.372 40.3919 172.219 39.438C173.963 38.4662 175.381 37.0126 176.299 35.256C177.279 33.3806 177.77 31.2937 177.727 29.184C177.766 27.0709 177.275 24.9811 176.299 23.1C175.381 21.3548 173.973 19.908 172.243 18.933ZM172.547 33.606C171.925 34.7615 170.961 35.7031 169.784 36.306C168.693 36.8547 167.485 37.1415 166.261 37.143C164.998 37.1594 163.752 36.859 162.64 36.27C161.538 35.6664 160.633 34.7652 160.032 33.672C159.318 32.53 158.962 31.02 158.962 29.142C158.962 27.38 159.303 25.898 159.986 24.696C160.614 23.548 161.578 22.6134 162.752 22.014C163.851 21.4926 165.054 21.2219 166.273 21.222C167.545 21.2019 168.801 21.5046 169.921 22.101C171.013 22.6975 171.916 23.5813 172.529 24.654C173.24 25.796 173.597 27.296 173.599 29.154C173.589 30.904 173.24 32.386 172.553 33.6L172.547 33.606Z" fill="white"/>
<path d="M194.627 17.4808H194.402C191.816 17.4808 189.497 18.8298 187.446 21.5278V19.7698C187.439 19.2237 187.215 18.7022 186.824 18.3157C186.433 17.9293 185.905 17.7083 185.352 17.6998C185.08 17.6969 184.81 17.7503 184.56 17.8568C184.31 17.9633 184.086 18.1203 183.902 18.3178C183.707 18.5076 183.553 18.7338 183.449 18.9832C183.345 19.2325 183.292 19.5 183.294 19.7698V38.6458C183.295 39.1821 183.512 39.696 183.897 40.0749C184.281 40.4538 184.802 40.667 185.346 40.6678C185.619 40.6701 185.89 40.6182 186.143 40.5151C186.396 40.412 186.625 40.2599 186.817 40.0678C187.017 39.8863 187.175 39.6653 187.283 39.4193C187.39 39.1733 187.444 38.9077 187.44 38.6398V25.2688C188.203 24.1022 189.234 23.1298 190.45 22.4308C191.625 21.7704 192.956 21.4288 194.308 21.4408H194.53C195.081 21.4562 195.618 21.2593 196.025 20.8918C196.221 20.7174 196.377 20.5034 196.482 20.2642C196.587 20.025 196.639 19.7664 196.633 19.5058C196.638 19.2412 196.589 18.9783 196.489 18.7326C196.389 18.4869 196.241 18.2633 196.053 18.0748C195.87 17.8828 195.649 17.7307 195.404 17.6283C195.158 17.526 194.893 17.4757 194.627 17.4808V17.4808Z" fill="white"/>
<path d="M211.389 36.8999C211.135 36.9057 210.882 36.9348 210.633 36.9869C210.614 37.0028 210.593 37.015 210.57 37.0227C210.547 37.0304 210.523 37.0336 210.499 37.0319C209.921 37.2103 209.319 37.2994 208.714 37.2959C207.763 37.2959 207.051 37.1189 206.586 36.7679C206.121 36.4169 205.875 35.7269 205.875 34.7009V21.6599H210.854C211.092 21.6659 211.328 21.622 211.547 21.5309C211.767 21.4399 211.963 21.3039 212.125 21.1319C212.289 20.971 212.42 20.7793 212.508 20.568C212.596 20.3568 212.641 20.1304 212.639 19.9019C212.643 19.6695 212.6 19.4387 212.511 19.2232C212.423 19.0077 212.292 18.812 212.125 18.6476C211.959 18.4833 211.761 18.3537 211.542 18.2667C211.324 18.1796 211.09 18.1369 210.854 18.1409H205.863V15.0179C205.895 14.4619 205.703 13.9159 205.328 13.4999C205.127 13.3084 204.889 13.1604 204.627 13.0653C204.365 12.9702 204.086 12.9303 203.808 12.9479C203.244 12.9157 202.691 13.1056 202.269 13.4759C202.074 13.6812 201.924 13.9242 201.828 14.1895C201.732 14.4549 201.693 14.7369 201.713 15.0179V18.1409H199.485C199.24 18.1236 198.994 18.1563 198.763 18.2369C198.531 18.3175 198.319 18.4442 198.139 18.6093C197.96 18.7744 197.816 18.9742 197.718 19.1964C197.62 19.4185 197.57 19.6582 197.57 19.9004C197.57 20.1427 197.62 20.3823 197.718 20.6045C197.816 20.8266 197.96 21.0264 198.139 21.1915C198.319 21.3566 198.531 21.4834 198.763 21.564C198.994 21.6445 199.24 21.6772 199.485 21.6599H201.716V35.0369C201.716 38.9409 203.901 40.8919 208.27 40.8899C209.548 40.8965 210.811 40.6261 211.97 40.0979C212.686 39.7159 213.042 39.1879 213.04 38.5139C213.035 38.0836 212.859 37.6724 212.551 37.3681C212.242 37.0637 211.826 36.8904 211.389 36.8849V36.8999Z" fill="white"/>
<path d="M224.075 12.5999C224.625 12.0119 225.554 11.7179 226.863 11.7179L228.079 11.8499C228.413 11.937 228.758 11.9823 229.104 11.9849C229.327 11.9835 229.548 11.9355 229.752 11.844C229.956 11.7525 230.138 11.6196 230.286 11.4539C230.449 11.2978 230.578 11.1112 230.666 10.9051C230.754 10.699 230.8 10.4776 230.8 10.2539C230.8 9.61187 230.441 9.08387 229.73 8.67287C228.516 8.0953 227.186 7.79681 225.839 7.79987C224.684 7.79496 223.546 8.07439 222.528 8.61287C221.489 9.17068 220.642 10.0221 220.096 11.0579C219.441 12.1699 219.115 13.6219 219.117 15.4139V17.9219H216.53C216.298 17.9206 216.069 17.9645 215.854 18.051C215.64 18.1375 215.445 18.2649 215.281 18.4259C215.111 18.587 214.977 18.7802 214.885 18.9939C214.793 19.2075 214.745 19.4373 214.745 19.6694C214.745 19.9015 214.793 20.1312 214.885 20.3449C214.977 20.5585 215.111 20.7517 215.281 20.9129C215.442 21.0799 215.636 21.2128 215.85 21.3035C216.065 21.3943 216.296 21.441 216.53 21.4409H219.117V38.6459C219.119 39.1817 219.335 39.695 219.719 40.0739C220.103 40.4527 220.623 40.6663 221.166 40.6679C221.44 40.6702 221.712 40.6183 221.965 40.5152C222.218 40.4122 222.448 40.2601 222.64 40.0679C222.837 39.8846 222.992 39.6629 223.097 39.4171C223.202 39.1712 223.253 38.9065 223.248 38.6399V21.4409H228.778C229.016 21.4456 229.252 21.401 229.47 21.31C229.689 21.2191 229.886 21.0838 230.049 20.9129C230.303 20.668 230.477 20.3536 230.547 20.0102C230.618 19.6668 230.583 19.3104 230.446 18.9871C230.309 18.6637 230.077 18.3885 229.779 18.197C229.482 18.0054 229.133 17.9065 228.778 17.9129H223.252V15.5459C223.252 14.1659 223.526 13.1839 224.075 12.5999Z" fill="white"/>
<path d="M273.323 13.4341H273.6C274.211 13.4219 274.794 13.1768 275.226 12.7501C275.659 12.3235 275.907 11.7484 275.92 11.1451V10.9681C275.908 10.3649 275.66 9.78973 275.227 9.36341C274.794 8.9371 274.211 8.69289 273.6 8.68213H273.332C272.721 8.69289 272.138 8.9371 271.705 9.36341C271.273 9.78973 271.025 10.3649 271.013 10.9681V11.1451C271.025 11.7484 271.274 12.3235 271.706 12.7501C272.138 13.1768 272.721 13.4219 273.332 13.4341H273.323Z" fill="white"/>
<path d="M302.574 23.1C301.66 21.3556 300.255 19.9086 298.528 18.933C296.701 17.9387 294.64 17.4379 292.554 17.481C290.461 17.4394 288.393 17.9401 286.556 18.933C284.823 19.8882 283.414 21.3274 282.507 23.07C282.007 24.017 281.638 25.026 281.41 26.07C281.364 26.286 281.319 26.502 281.282 26.724C281.246 26.946 281.215 27.162 281.188 27.387C279.347 26.6549 277.448 26.0759 275.509 25.656V19.77C275.515 19.4966 275.465 19.2249 275.361 18.9711C275.258 18.7174 275.104 18.4869 274.908 18.2935C274.712 18.1002 274.478 17.9479 274.221 17.8459C273.964 17.7439 273.689 17.6943 273.411 17.7C273.14 17.6971 272.871 17.7506 272.621 17.8571C272.372 17.9636 272.148 18.1206 271.964 18.318C271.77 18.5077 271.616 18.734 271.512 18.9833C271.407 19.2327 271.354 19.5002 271.356 19.77V25.02C270.365 24.927 269.338 24.87 268.271 24.861H268C266.798 24.8619 265.597 24.9239 264.401 25.047V10.089C264.407 9.81559 264.356 9.54385 264.253 9.29012C264.15 9.03639 263.995 8.80591 263.799 8.61254C263.604 8.41917 263.37 8.26691 263.113 8.16491C262.856 8.06291 262.58 8.01328 262.303 8.019C262.032 8.01609 261.762 8.06961 261.513 8.17608C261.264 8.28255 261.04 8.43959 260.856 8.637C260.662 8.82675 260.508 9.05297 260.404 9.30234C260.299 9.55171 260.246 9.81918 260.248 10.089V25.719C258.312 26.1502 256.415 26.7413 254.579 27.486C254.554 27.261 254.524 27.042 254.487 26.823C254.451 26.604 254.408 26.382 254.36 26.166C254.139 25.0986 253.768 24.0667 253.259 23.1C252.341 21.3572 250.931 19.9134 249.201 18.942C247.374 17.9477 245.313 17.4469 243.227 17.49C241.134 17.4484 239.066 17.9491 237.229 18.942C235.502 19.896 234.099 21.332 233.195 23.07C232.217 24.9612 231.727 27.0611 231.767 29.184C231.73 31.2931 232.22 33.3787 233.195 35.256C234.099 37.0009 235.492 38.4525 237.208 39.438C239.055 40.3918 241.109 40.89 243.194 40.89C245.279 40.89 247.332 40.3918 249.18 39.438C250.923 38.4653 252.341 37.0119 253.259 35.256C253.717 34.4025 254.063 33.4953 254.29 32.556C254.357 32.289 254.415 32.019 254.466 31.743C254.518 31.467 254.548 31.23 254.579 30.969C256.406 30.1372 258.308 29.4763 260.26 28.995V38.643C260.262 39.1788 260.478 39.6922 260.862 40.071C261.246 40.4499 261.766 40.6634 262.309 40.665C262.583 40.6676 262.854 40.6158 263.107 40.5127C263.36 40.4097 263.589 40.2574 263.781 40.065C263.981 39.8836 264.14 39.6628 264.248 39.4167C264.356 39.1707 264.41 38.9051 264.407 38.637V28.257C265.6 28.1215 266.8 28.0534 268 28.053H268.253C269.332 28.053 270.381 28.125 271.363 28.227V38.646C271.364 39.1818 271.581 39.6952 271.964 40.074C272.348 40.4529 272.869 40.6664 273.411 40.668C273.685 40.6706 273.956 40.6188 274.209 40.5157C274.462 40.4127 274.691 40.2604 274.883 40.068C275.083 39.8866 275.242 39.6658 275.35 39.4197C275.458 39.1737 275.512 38.9081 275.509 38.64V28.938C277.453 29.4027 279.349 30.0455 281.173 30.858C281.203 31.116 281.239 31.374 281.282 31.626C281.325 31.878 281.382 32.163 281.446 32.427C281.676 33.4108 282.033 34.3615 282.507 35.256C283.413 37.0004 284.807 38.4518 286.523 39.438C288.37 40.3918 290.424 40.89 292.509 40.89C294.594 40.89 296.647 40.3918 298.495 39.438C300.238 38.4653 301.655 37.0119 302.574 35.256C303.553 33.3804 304.043 31.2935 304 29.184C304.039 27.0711 303.55 24.9813 302.574 23.1V23.1ZM250.496 30.216C250.417 31.4014 250.085 32.5568 249.52 33.606C248.897 34.7623 247.932 35.704 246.754 36.306C245.664 36.855 244.457 37.1418 243.233 37.143C241.961 37.1616 240.706 36.859 239.585 36.264C238.483 35.6604 237.578 34.7592 236.977 33.666C236.262 32.528 235.904 31.02 235.904 29.142C235.904 27.38 236.246 25.898 236.931 24.696C237.558 23.5482 238.521 22.6136 239.695 22.014C240.794 21.4926 241.998 21.2219 243.218 21.222C244.484 21.2045 245.734 21.5071 246.848 22.101C247.941 22.6958 248.845 23.58 249.456 24.654C250.047 25.6627 250.394 26.7917 250.472 27.954C250.493 28.188 250.508 28.428 250.514 28.674C250.514 28.749 250.514 28.824 250.514 28.899C250.514 28.974 250.514 29.049 250.514 29.127C250.539 29.511 250.52 29.868 250.496 30.216ZM298.832 33.6C298.209 34.7563 297.244 35.698 296.066 36.3C294.975 36.8487 293.769 37.1355 292.545 37.137C291.273 37.1556 290.017 36.853 288.897 36.258C287.795 35.6544 286.89 34.7532 286.289 33.66C285.742 32.7221 285.408 31.678 285.31 30.6C285.264 30.1885 285.238 29.775 285.234 29.361C285.234 29.289 285.234 29.22 285.234 29.145C285.234 28.947 285.234 28.755 285.234 28.566C285.234 28.323 285.261 28.083 285.286 27.852C285.385 26.7474 285.712 25.6744 286.246 24.699C286.872 23.5505 287.836 22.6156 289.01 22.017C290.109 21.4956 291.313 21.2249 292.533 21.225C293.805 21.2044 295.062 21.5071 296.181 22.104C297.274 22.6988 298.178 23.583 298.789 24.657C299.503 25.799 299.859 27.299 299.859 29.157C299.904 30.7 299.55 32.2287 298.832 33.6V33.6Z" fill="white"/>
<path d="M258.614 47.6279C258.6 47.5855 258.582 47.5443 258.561 47.5049V47.5259C258.586 47.5589 258.602 47.5949 258.614 47.6279Z" fill="white"/>
<path d="M279.16 44.3248C278.342 44.1418 277.297 44.5678 277.123 45.4648C277.031 45.9543 276.906 46.4374 276.749 46.9108C276.679 47.1238 276.597 47.3308 276.518 47.5378L276.482 47.6278C276.427 47.7448 276.369 47.8648 276.312 47.9818C276.094 48.4149 275.848 48.8337 275.576 49.2358C275.503 49.3438 275.43 49.4488 275.354 49.5538L275.254 49.6858L275.132 49.8358C275.039 49.9498 274.938 50.0608 274.828 50.1688C274.506 50.5254 274.161 50.8611 273.795 51.1738L273.539 51.3868L273.457 51.4468C273.266 51.5818 273.077 51.7168 272.883 51.8428C272.476 52.1045 272.052 52.34 271.615 52.5478L271.311 52.6888H271.29C271.043 52.7788 270.8 52.8718 270.548 52.9528C270.079 53.1021 269.601 53.2204 269.116 53.3068L268.812 53.3578H268.699C268.45 53.3818 268.198 53.3998 267.946 53.4088C267.438 53.427 266.931 53.412 266.426 53.3638H266.298C266.204 53.3458 266.1 53.3368 266.009 53.3218C265.748 53.2738 265.486 53.2198 265.228 53.1568C264.753 53.0329 264.285 52.8847 263.826 52.7128H263.799L263.495 52.5778C263.261 52.4668 263.027 52.3498 262.799 52.2208C262.378 51.9848 261.972 51.7243 261.583 51.4408V51.4408L261.324 51.2308C261.122 51.0628 260.93 50.8888 260.75 50.7088C260.549 50.5168 260.358 50.3158 260.172 50.1088C260.087 50.0128 260.002 49.9138 259.92 49.8088L259.853 49.7278C259.538 49.3 259.249 48.8543 258.987 48.3928C258.85 48.1468 258.725 47.8978 258.607 47.6428C258.607 47.6608 258.607 47.6428 258.573 47.5648V47.5408C258.565 47.5223 258.556 47.5042 258.546 47.4868L258.564 47.5198C258.518 47.3938 258.467 47.2678 258.421 47.1418C258.231 46.5993 258.082 46.0438 257.974 45.4798C257.813 44.6398 256.74 44.0818 255.938 44.3398C255.521 44.4648 255.168 44.7431 254.953 45.1172C254.738 45.4912 254.677 45.9325 254.782 46.3498C255.236 48.6204 256.304 50.7277 257.872 52.4485C259.44 54.1693 261.451 55.4395 263.691 56.1248C265.931 56.8101 268.317 56.8849 270.596 56.3413C272.876 55.7977 274.964 54.6559 276.64 53.0368C278.527 51.2238 279.81 48.8858 280.315 46.3348C280.476 45.4978 280.078 44.5318 279.16 44.3248Z" fill="white"/>
<path d="M240.573 32.3331C241.61 32.2614 242.392 31.3733 242.32 30.3493C242.247 29.3254 241.347 28.5534 240.31 28.6251C239.272 28.6968 238.49 29.5849 238.562 30.6089C238.635 31.6328 239.535 32.4048 240.573 32.3331Z" fill="white"/>
<path d="M290.75 30.3701C290.852 29.3512 290.097 28.4434 289.065 28.3426C288.032 28.2418 287.113 28.9861 287.01 30.0051C286.908 31.024 287.662 31.9318 288.695 32.0326C289.728 32.1334 290.647 31.3891 290.75 30.3701Z" fill="white"/>
<path d="M61.9248 10.3622C61.6923 9.23309 61.095 8.20884 60.2224 7.44322C59.3053 6.64269 58.1504 6.15648 56.9301 6.05722C56.7416 6.03922 56.5562 6.03622 56.3768 6.03622H54.6076C53.9689 4.77408 52.8664 3.79986 51.525 3.31222C50.9413 3.09926 50.3233 2.99253 49.701 2.99722C49.2457 2.99835 48.7919 3.04967 48.3482 3.15022L47.9044 3.25222L45.6335 3.77122L41.8943 4.62322L37.158 5.70022L35.7109 6.03022H22.1252C21.654 6.03022 21.1645 6.01222 20.669 6.01222C20.0928 6.00352 19.517 6.04569 18.9484 6.13822C17.7992 6.35957 16.7539 6.94275 15.9692 7.80022C15.1861 8.65481 14.6911 9.72819 14.5525 10.8722L14.1148 10.9712L12.841 11.2712C11.6847 11.5381 10.6483 12.1701 9.88916 13.0712V13.0712C9.06166 14.0658 8.60839 15.3123 8.60628 16.5992C8.60754 16.927 8.636 17.2541 8.6914 17.5772C8.7826 18.1082 8.92852 18.6182 9.04404 19.1102L9.65204 21.6902C9.67636 21.7862 9.69764 21.8792 9.71892 21.9722C8.79367 22.2519 7.96056 22.7696 7.30516 23.4722C6.48194 24.3656 5.97424 25.4982 5.85812 26.7002C5.83605 26.9275 5.82591 27.1559 5.82772 27.3842C5.82772 27.6092 5.82772 27.8282 5.82772 28.0412V30.8672H5.545C4.54126 30.8665 3.55598 31.1334 2.69335 31.6399C1.83073 32.1463 1.12283 32.8734 0.644519 33.7442C0.217764 34.5549 -0.00338332 35.4557 3.91269e-05 36.3692V45.7682C0.00501605 46.1105 0.140726 46.4384 0.380039 46.6862C0.497912 46.8138 0.640941 46.9164 0.800372 46.9876C0.959802 47.0588 1.13228 47.0971 1.30724 47.1002H1.36196C1.70992 47.0842 2.0403 46.9447 2.2922 46.7072C2.41899 46.5855 2.51981 46.44 2.58873 46.2793C2.65764 46.1185 2.69326 45.9458 2.69348 45.7712V36.3872C2.69348 36.2312 2.69348 36.0722 2.71476 35.9042C2.71476 35.8562 2.73604 35.8082 2.74516 35.7602H2.73604C2.7634 35.6402 2.7938 35.5262 2.83028 35.4122C2.84548 35.3642 2.86372 35.3162 2.88196 35.2682C2.9458 35.1482 2.98532 35.0432 3.0218 34.9682C3.05828 34.8932 3.13124 34.7792 3.19204 34.6892L3.27108 34.5782C3.41721 34.407 3.5779 34.2484 3.7514 34.1042L3.82132 34.0562L3.86388 34.0202C3.96116 33.9542 4.06452 33.8942 4.16788 33.8372C4.27124 33.7802 4.329 33.7592 4.42324 33.7112L4.6026 33.6512C4.70931 33.6163 4.8179 33.5873 4.92788 33.5642L5.09204 33.5312C5.23492 33.5312 5.36868 33.5102 5.49636 33.5102H42.1709C42.2286 33.5072 42.2865 33.5072 42.3442 33.5102H42.3624C42.5788 33.55 42.7929 33.6011 43.0039 33.6632L43.1255 33.7082C43.2319 33.7592 43.3352 33.8102 43.4295 33.8642C43.5237 33.9182 43.6149 33.9782 43.7061 34.0382H43.7213L43.8399 34.1342C43.9948 34.2754 44.141 34.4257 44.2776 34.5842L44.3688 34.7132C44.4327 34.8122 44.4935 34.9142 44.5482 35.0132L44.6181 35.1542C44.6576 35.2712 44.7002 35.3702 44.7215 35.4542C44.7552 35.5605 44.7827 35.6687 44.8036 35.7782C44.8036 35.8082 44.8036 35.8442 44.8248 35.8832C44.8461 35.9222 44.8248 35.9342 44.8248 35.9492C44.8248 36.0842 44.8248 36.2222 44.8248 36.3662V45.7322C44.8313 46.0742 44.9668 46.4016 45.2048 46.6502C45.3235 46.7774 45.4672 46.8794 45.6271 46.9501C45.7871 47.0207 45.9599 47.0585 46.1351 47.0612H46.208C46.5562 47.046 46.8868 46.9063 47.1383 46.6682C47.2662 46.5474 47.3678 46.402 47.4368 46.2411C47.5058 46.0801 47.5407 45.907 47.5396 45.7322V36.3572C47.5512 35.2467 47.218 34.1593 46.5849 33.2411C45.9518 32.323 45.049 31.6181 43.998 31.2212C43.2387 30.9504 42.4335 30.8272 41.6267 30.8582H8.52724V27.5162C8.52724 27.2612 8.52724 27.0122 8.54852 26.7692C8.54852 26.7422 8.54852 26.7152 8.54852 26.6942C8.5698 26.5862 8.59716 26.4782 8.62756 26.3732C8.65492 26.2802 8.6914 26.1842 8.72788 26.0732L8.78564 25.9502C8.83732 25.8542 8.889 25.7612 8.94676 25.6682L9.02884 25.5572C9.06445 25.5124 9.09695 25.4653 9.12612 25.4162L9.17476 25.3562C9.25988 25.2632 9.34804 25.1732 9.43924 25.0892L9.62468 24.9332L9.74324 24.8522C9.86484 24.7742 10.0168 24.7052 10.184 24.6212H10.2084L10.3026 24.5702C10.3462 24.5525 10.3909 24.5375 10.4364 24.5252V24.5252C10.5431 24.4903 10.6517 24.4613 10.7616 24.4382V24.4382C10.7788 24.4362 10.7962 24.4362 10.8133 24.4382H10.8407C10.864 24.4397 10.8873 24.4397 10.9106 24.4382L11.0231 24.4082H11.2207H47.9165C48.0168 24.4082 48.1263 24.4082 48.2418 24.4262L48.3786 24.4532C48.5453 24.496 48.7096 24.5471 48.8711 24.6062H48.9045L49.0139 24.6332L49.1234 24.6872C49.2024 24.7292 49.2815 24.7742 49.3605 24.8222C49.3931 24.8415 49.4245 24.8625 49.4547 24.8852C49.4624 24.8965 49.4716 24.9066 49.4821 24.9152L49.5307 24.9542L49.628 25.0052L49.7344 25.0982C49.8348 25.1882 49.932 25.2992 50.0384 25.4162V25.4312C50.0468 25.4454 50.057 25.4586 50.0688 25.4702L50.1448 25.5632L50.1813 25.6082V25.6262C50.2452 25.7252 50.306 25.8272 50.3607 25.9262L50.4154 26.0312C50.4296 26.0556 50.4458 26.0786 50.464 26.1002L50.4823 26.1542C50.4897 26.172 50.4989 26.1891 50.5096 26.2052V26.2052V26.2532C50.545 26.3575 50.5745 26.4637 50.5978 26.5712C50.5978 26.6252 50.6221 26.6822 50.6343 26.7362C50.6525 26.9612 50.6525 27.1922 50.6525 27.4322V37.9622C50.6606 38.3204 50.8113 38.661 51.072 38.9102C51.1903 39.0379 51.3339 39.1403 51.4939 39.211C51.6539 39.2817 51.827 39.3192 52.0023 39.3212H52.0539C52.4024 39.3074 52.7335 39.1675 52.9842 38.9282C53.1125 38.8077 53.2144 38.6624 53.2834 38.5014C53.3525 38.3404 53.3872 38.167 53.3855 37.9922V28.5002C53.3855 28.2212 53.3855 27.9392 53.3855 27.6512C53.3963 27.1085 53.3546 26.5661 53.2608 26.0312C53.0256 24.9031 52.4287 23.8796 51.5584 23.1122C50.6413 22.3117 49.4864 21.8255 48.2661 21.7262C48.0807 21.7262 47.8983 21.7082 47.7189 21.7082H13.452C13.1146 21.7082 12.768 21.7082 12.4154 21.6932L11.6402 18.3932C11.5216 17.8892 11.3848 17.3972 11.3028 16.9172C11.3028 16.8452 11.3028 16.7792 11.3028 16.7192C11.3028 16.6592 11.3028 16.6142 11.3028 16.5632C11.3028 16.4582 11.3028 16.3532 11.318 16.2482V16.1942L11.3332 16.1132V16.0622C11.3613 15.9209 11.3989 15.7816 11.4456 15.6452C11.4456 15.5942 11.4852 15.5402 11.5064 15.4772L11.5247 15.4352C11.5885 15.3092 11.6584 15.1832 11.7344 15.0632C11.7709 15.0032 11.8104 14.9432 11.853 14.8862L11.8743 14.8562C11.9685 14.7482 12.0597 14.6462 12.154 14.5562C12.1974 14.5129 12.2431 14.4719 12.2908 14.4332V14.4332L12.3181 14.4182C12.3367 14.4071 12.354 14.394 12.3698 14.3792L12.4306 14.3282L12.4549 14.3102C12.5218 14.2652 12.5948 14.2202 12.6677 14.1782C12.7712 14.1188 12.8777 14.0647 12.9869 14.0162L13.0295 13.9982C13.1085 13.9682 13.1906 13.9412 13.2727 13.9172C13.3608 13.8932 13.452 13.8692 13.5493 13.8482L14.0357 13.7372L14.8565 13.5482L15.8992 13.3112L16.34 13.2092L16.948 13.0742L20.0853 12.3572L24.8064 11.2802L30.0717 10.0802L35.4343 8.85922L36.0423 8.72422L40.4472 7.71922L40.5567 7.69522L44.688 6.71722L45.068 6.63022L47.7007 6.03022C48.1536 5.92822 48.6127 5.82322 49.0504 5.73022H49.0808L49.1812 5.70922L49.3271 5.68522H49.4213C49.5064 5.68522 49.5946 5.68522 49.6797 5.68522H49.8712L50.0597 5.70022H50.0901C50.2235 5.72376 50.3555 5.75481 50.4853 5.79322L50.692 5.85922L50.7559 5.88322C50.8775 5.94322 50.9899 5.99422 51.0903 6.05122L51.2727 6.16522L51.3547 6.22222L51.4034 6.25822L51.4247 6.27322L51.4551 6.29722L51.6162 6.44122L51.7378 6.56422C51.7956 6.63022 51.8563 6.69322 51.9111 6.75922C51.9536 6.81922 51.9962 6.87922 52.0327 6.93922C52.1117 7.06324 52.1837 7.19143 52.2485 7.32322V7.35922L52.2941 7.48222L52.3093 7.52422C52.3458 7.63522 52.3792 7.75222 52.4066 7.87222C52.4552 8.07022 52.5039 8.27422 52.5495 8.47222C52.5951 8.67022 52.665 8.96122 52.7197 9.20422L53.5466 12.6002L54.6501 17.3132C54.9926 18.7692 55.3341 20.2252 55.6746 21.6812L55.8844 22.5812C56.2897 24.2732 56.6859 25.9632 57.073 27.6512C57.3912 29.0232 57.7114 30.3932 58.0336 31.7612L58.5444 33.9302C58.5444 34.0052 58.5778 34.0772 58.593 34.1492C58.6082 34.2212 58.6447 34.3622 58.669 34.4702C58.7414 34.7595 58.916 35.0137 59.1615 35.1872C59.3979 35.3618 59.684 35.4583 59.9792 35.4632C60.1021 35.4636 60.2243 35.4443 60.341 35.4062C60.6239 35.3186 60.8716 35.1454 61.0493 34.9112C61.1663 34.7511 61.2467 34.5679 61.285 34.3742C61.3233 34.1805 61.3186 33.9809 61.2712 33.7892C61.1709 33.3482 61.0676 32.9102 60.9672 32.4722L60.1616 29.0282C59.7867 27.4282 59.4128 25.8282 59.0399 24.2282L58.4836 21.8582C58.2566 20.8742 58.0265 19.8902 57.7935 18.9062C57.3881 17.2082 56.9909 15.5082 56.6018 13.8062L55.632 9.73222C55.5499 9.38722 55.4679 9.04222 55.3888 8.69722H56.5744C56.6778 8.69722 56.7842 8.69722 56.8997 8.71822L57.0396 8.74222C57.1764 8.76922 57.3436 8.83522 57.529 8.89522C57.5559 8.90558 57.5833 8.91459 57.6111 8.92222L57.6719 8.93722C57.7095 8.95278 57.7461 8.97082 57.7813 8.99122C57.8634 9.03322 57.9424 9.07822 58.0184 9.12322L58.1127 9.18922L58.14 9.21922L58.1917 9.25522L58.2859 9.30922L58.3954 9.40222C58.4927 9.48922 58.5899 9.60322 58.6994 9.72022V9.73522L58.7267 9.77422L58.8027 9.86422L58.8423 9.91222V9.92722C58.9061 10.0262 58.9669 10.1252 59.0216 10.2272L59.0763 10.3352C59.0763 10.3652 59.0915 10.3952 59.0976 10.4162L59.1159 10.4702C59.1245 10.489 59.1347 10.5071 59.1463 10.5242V10.5242C59.1513 10.5406 59.1574 10.5566 59.1645 10.5722V10.5722C59.1979 10.6772 59.2284 10.7852 59.2527 10.8932C59.2527 10.9472 59.277 11.0012 59.2861 11.0552V11.1002C59.3044 11.3222 59.3074 11.5502 59.3074 11.7872V22.3202C59.3112 22.6628 59.447 22.991 59.6874 23.2382C59.8032 23.3645 59.9437 23.4662 60.1004 23.5374C60.2572 23.6085 60.4269 23.6476 60.5994 23.6522H60.6511C60.9999 23.6388 61.3318 23.5002 61.5843 23.2622C61.7114 23.1401 61.8123 22.994 61.8812 22.8328C61.9501 22.6715 61.9856 22.4982 61.9856 22.3232V12.8282C61.9856 12.5492 61.9856 12.2672 61.9856 11.9822C62.0191 11.4416 61.9988 10.899 61.9248 10.3622ZM17.632 9.99922C17.632 9.97822 17.6746 9.93922 17.7111 9.89122C17.746 9.84593 17.7785 9.79887 17.8084 9.75022L17.857 9.69022C17.9407 9.59512 18.0301 9.50496 18.1245 9.42022V9.42022C18.1762 9.37222 18.24 9.32122 18.31 9.26122L18.4285 9.18322C18.5701 9.09751 18.7162 9.01939 18.8663 8.94922H18.8936L18.9879 8.89522L19.1186 8.85022C19.228 8.81722 19.3344 8.78722 19.4439 8.76322H19.4986H19.5229C19.5471 8.76611 19.5716 8.76611 19.5959 8.76322L19.7053 8.73622C19.7722 8.73622 19.8391 8.73622 19.906 8.73622H24.0525L21.356 9.30022L17.5256 10.2002C17.5591 10.1372 17.5925 10.0772 17.632 10.0142V9.99922Z" fill="white"/>
</g>
<defs>
<clipPath id="clip0">
<rect width="304" height="60" fill="white"/>
</clipPath>
</defs>
</svg>
