<svg width="150" height="150" viewBox="0 0 150 150" fill="none" xmlns="http://www.w3.org/2000/svg">
<g clip-path="url(#clip0)">
<path d="M133.552 43.8332C142.076 43.8332 148.986 36.8874 148.986 28.3194C148.986 19.7514 142.076 12.8057 133.552 12.8057C125.027 12.8057 118.117 19.7514 118.117 28.3194C118.117 36.8874 125.027 43.8332 133.552 43.8332Z" fill="#F15A60"/>
<path d="M144.756 54.9686C147.106 54.9686 149.012 53.0537 149.012 50.6916C149.012 48.3295 147.106 46.4146 144.756 46.4146C142.406 46.4146 140.501 48.3295 140.501 50.6916C140.501 53.0537 142.406 54.9686 144.756 54.9686Z" fill="#F15A60"/>
<path d="M117.411 141.142C116.505 141.142 115.598 141.142 114.692 141.142C112.25 141.142 109.807 141.142 107.365 141.142C103.739 141.142 100.113 141.142 96.4874 141.142C92.0559 141.142 87.6243 141.142 83.218 141.142C78.3836 141.142 73.5743 141.142 68.7399 141.142C63.8552 141.142 58.9452 141.142 54.0605 141.142C49.503 141.142 44.9456 141.142 40.363 141.142C36.5357 141.142 32.6833 141.142 28.8561 141.142C26.0864 141.142 23.3167 141.142 20.5218 141.142C19.2124 141.142 17.9031 141.117 16.5938 141.142C16.5434 141.142 16.4679 141.142 16.4176 141.142C17.8779 142.61 19.3635 144.103 20.8239 145.571C20.8239 144.306 20.8239 143.04 20.8239 141.775C20.8239 138.358 20.8239 134.942 20.8239 131.525C20.8239 126.464 20.8239 121.402 20.8239 116.34C20.8239 110.165 20.8239 103.99 20.8239 97.7898C20.8239 91.0326 20.8239 84.3007 20.8239 77.5434C20.8239 70.685 20.8239 63.8266 20.8239 56.9681C20.8239 50.6158 20.8239 44.2635 20.8239 37.9113C20.8239 32.5207 20.8239 27.1554 20.8239 21.7648C20.8239 17.8927 20.8239 14.0206 20.8239 10.1485C20.8239 8.3263 20.8491 6.47883 20.8239 4.65666C20.8239 4.58073 20.8239 4.50481 20.8239 4.42888C19.3635 5.92205 17.9031 7.38991 16.4176 8.85777C17.324 8.85777 18.2305 8.85777 19.1369 8.85777C21.5793 8.85777 24.0217 8.85777 26.4641 8.85777C30.0899 8.85777 33.7157 8.85777 37.3415 8.85777C41.773 8.85777 46.2045 8.85777 50.6109 8.85777C55.4453 8.85777 60.2545 8.85777 65.0889 8.85777C69.9737 8.85777 74.8836 8.85777 79.7684 8.85777C84.3258 8.85777 88.8833 8.85777 93.4659 8.85777C97.2931 8.85777 101.146 8.85777 104.973 8.85777C107.743 8.85777 110.512 8.85777 113.307 8.85777C114.616 8.85777 115.926 8.88308 117.235 8.85777C117.285 8.85777 117.361 8.85777 117.411 8.85777C115.951 7.38991 114.465 5.89674 113.005 4.42888C113.005 5.69428 113.005 6.95968 113.005 8.22507C113.005 11.6416 113.005 15.0582 113.005 18.4748C113.005 23.5364 113.005 28.5979 113.005 33.6595C113.005 39.8347 113.005 46.0098 113.005 52.2102C113.005 58.9674 113.005 65.6993 113.005 72.4566C113.005 79.315 113.005 86.1734 113.005 93.0319C113.005 99.3842 113.005 105.736 113.005 112.089C113.005 117.479 113.005 122.845 113.005 128.235C113.005 132.107 113.005 135.979 113.005 139.852C113.005 141.674 112.98 143.521 113.005 145.343C113.005 145.419 113.005 145.495 113.005 145.571C113.005 147.899 115.019 150.101 117.411 150C119.803 149.899 121.818 148.051 121.818 145.571C121.818 144.306 121.818 143.04 121.818 141.775C121.818 138.358 121.818 134.942 121.818 131.525C121.818 126.464 121.818 121.402 121.818 116.34C121.818 110.165 121.818 103.99 121.818 97.7898C121.818 91.0326 121.818 84.3007 121.818 77.5434C121.818 70.685 121.818 63.8266 121.818 56.9681C121.818 50.6158 121.818 44.2635 121.818 37.9113C121.818 32.5207 121.818 27.1554 121.818 21.7648C121.818 17.8927 121.818 14.0206 121.818 10.1485C121.818 8.3263 121.843 6.47883 121.818 4.65666C121.818 4.58073 121.818 4.50481 121.818 4.42888C121.818 2.02463 119.803 0 117.411 0C116.505 0 115.598 0 114.692 0C112.25 0 109.807 0 107.365 0C103.739 0 100.113 0 96.4874 0C92.0559 0 87.6243 0 83.218 0C78.3836 0 73.5743 0 68.7399 0C63.8552 0 58.9452 0 54.0605 0C49.503 0 44.9456 0 40.363 0C36.5357 0 32.6833 0 28.8561 0C26.0864 0 23.3167 0 20.5218 0C19.2124 0 17.9031 0 16.5938 0C16.5434 0 16.4679 0 16.4176 0C14.0507 0 12.0112 2.04994 12.0112 4.42888C12.0112 5.69428 12.0112 6.95968 12.0112 8.22507C12.0112 11.6416 12.0112 15.0582 12.0112 18.4748C12.0112 23.5364 12.0112 28.5979 12.0112 33.6595C12.0112 39.8347 12.0112 46.0098 12.0112 52.2102C12.0112 58.9674 12.0112 65.6993 12.0112 72.4566C12.0112 79.315 12.0112 86.1734 12.0112 93.0319C12.0112 99.3842 12.0112 105.736 12.0112 112.089C12.0112 117.479 12.0112 122.845 12.0112 128.235C12.0112 132.107 12.0112 135.979 12.0112 139.852C12.0112 141.674 11.986 143.521 12.0112 145.343C12.0112 145.419 12.0112 145.495 12.0112 145.571C12.0112 147.975 14.0255 150 16.4176 150C17.324 150 18.2305 150 19.1369 150C21.5793 150 24.0217 150 26.4641 150C30.0899 150 33.7157 150 37.3415 150C41.773 150 46.2045 150 50.6109 150C55.4453 150 60.2545 150 65.0889 150C69.9737 150 74.8836 150 79.7684 150C84.3258 150 88.8833 150 93.4659 150C97.2931 150 101.146 150 104.973 150C107.743 150 110.512 150 113.307 150C114.616 150 115.926 150.025 117.235 150C117.285 150 117.361 150 117.411 150C119.728 150 121.918 147.975 121.818 145.571C121.717 143.167 119.879 141.142 117.411 141.142Z" fill="#333333"/>
<path d="M73.4738 44.0864C72.2149 41.6315 70.83 39.5057 69.5207 37.7088C71.8372 36.6965 73.4738 34.3682 73.4738 31.6855C73.4738 28.0665 70.5531 25.1055 66.9273 25.1055C63.3266 25.1055 60.3807 28.0412 60.3807 31.6855C60.3807 34.3935 61.9921 36.6965 64.3338 37.7088C63.0497 39.4804 61.7655 41.505 60.5317 43.8586C58.0138 48.6925 56.7297 53.1466 56.0247 56.5126C59.6505 57.2971 63.3014 58.0564 66.9273 58.8409C70.5531 58.0564 74.204 57.2971 77.8298 56.5126C77.1752 53.2226 75.9162 48.8443 73.4738 44.0864Z" fill="#F15A60"/>
<path d="M84.7291 38.3921C84.7291 39.3032 84.6787 40.2143 84.5528 41.1254C84.578 40.8976 84.6032 40.6698 84.6535 40.4421C84.4017 42.2389 83.9233 44.0105 83.2183 45.6808C83.2938 45.4783 83.3946 45.2759 83.4701 45.0734C82.7903 46.6931 81.909 48.2116 80.8263 49.5782C80.9522 49.4011 81.0781 49.2492 81.2291 49.0721C80.1716 50.4387 78.9378 51.6788 77.5782 52.7417C77.7544 52.6152 77.9055 52.4886 78.0817 52.3368C76.6969 53.3997 75.1861 54.2855 73.5999 54.9941C73.8013 54.9182 74.0027 54.817 74.2042 54.741C72.5423 55.4497 70.7798 55.9305 68.9921 56.1836C69.2187 56.1583 69.4453 56.133 69.6719 56.0824C67.8842 56.3101 66.0461 56.3101 64.2584 56.0824C64.485 56.1077 64.7116 56.133 64.9382 56.1836C63.1505 55.9305 61.3879 55.4497 59.7261 54.741C59.9275 54.817 60.129 54.9182 60.3304 54.9941C58.7189 54.3108 57.2082 53.425 55.8485 52.3368C56.0248 52.4633 56.1758 52.5899 56.3521 52.7417C54.9924 51.6788 53.7586 50.4387 52.7011 49.0721C52.827 49.2492 52.9529 49.4011 53.104 49.5782C52.0465 48.1863 51.1652 46.6678 50.4602 45.0734C50.5357 45.2759 50.6364 45.4783 50.712 45.6808C50.0069 44.0105 49.5285 42.2389 49.2767 40.4421C49.3019 40.6698 49.3271 40.8976 49.3775 41.1254C49.1508 39.3285 49.1508 37.481 49.3775 35.6842C49.3523 35.912 49.3271 36.1397 49.2767 36.3675C49.5285 34.5706 50.0069 32.7991 50.712 31.1288C50.6364 31.3312 50.5357 31.5337 50.4602 31.7361C51.14 30.1164 52.0213 28.598 53.104 27.2313C52.9781 27.4085 52.8522 27.5603 52.7011 27.7375C53.7586 26.3709 54.9924 25.1308 56.3521 24.0678C56.1758 24.1944 56.0248 24.3209 55.8485 24.4728C57.2334 23.4098 58.7441 22.5241 60.3304 21.8154C60.129 21.8914 59.9275 21.9926 59.7261 22.0685C61.3879 21.3599 63.1505 20.879 64.9382 20.626C64.7116 20.6513 64.485 20.6766 64.2584 20.7272C66.0461 20.4994 67.8842 20.4994 69.6719 20.7272C69.4453 20.7019 69.2187 20.6766 68.9921 20.626C70.7798 20.879 72.5423 21.3599 74.2042 22.0685C74.0027 21.9926 73.8013 21.8914 73.5999 21.8154C75.2113 22.4988 76.7221 23.3845 78.0817 24.4728C77.9055 24.3462 77.7544 24.2197 77.5782 24.0678C78.9378 25.1308 80.1716 26.3709 81.2291 27.7375C81.1033 27.5603 80.9774 27.4085 80.8263 27.2313C81.8838 28.6233 82.7651 30.1417 83.4701 31.7361C83.3946 31.5337 83.2938 31.3312 83.2183 31.1288C83.9233 32.7991 84.4017 34.5706 84.6535 36.3675C84.6283 36.1397 84.6032 35.912 84.5528 35.6842C84.6535 36.57 84.7291 37.481 84.7291 38.3921C84.7291 39.7081 85.8873 40.9735 87.247 40.9229C88.6067 40.8723 89.7649 39.8094 89.7649 38.3921C89.7649 33.7355 88.3549 29.0535 85.6607 25.2573C84.9557 24.2703 84.2003 23.3086 83.3442 22.4228C82.4881 21.5371 81.5565 20.7525 80.5745 19.9933C78.7616 18.6013 76.7473 17.5637 74.607 16.7792C70.2007 15.1595 65.2152 15.0329 60.7333 16.2983C56.3773 17.5384 52.3486 20.1198 49.4782 23.6376C48.6976 24.574 47.9674 25.561 47.3379 26.6239C46.6833 27.7122 46.1797 28.8257 45.7013 29.9899C44.82 32.1664 44.3416 34.4694 44.1654 36.7977C43.8129 41.4544 44.9711 46.2629 47.3883 50.2362C49.73 54.1083 53.2299 57.3478 57.3341 59.1952C58.4672 59.7014 59.6254 60.1569 60.8088 60.5112C62.0426 60.8656 63.3016 61.068 64.5857 61.2199C66.9525 61.4983 69.3446 61.3211 71.6862 60.8656C76.1178 59.9545 80.2975 57.6008 83.4197 54.3108C86.5671 50.9955 88.7829 46.7184 89.4628 42.1883C89.6642 40.9229 89.7901 39.6828 89.7901 38.4174C89.7901 37.1014 88.6318 35.836 87.2722 35.8866C85.8873 35.912 84.7291 36.9749 84.7291 38.3921Z" fill="#333333"/>
<path d="M36.0577 80.8587C36.6116 80.8587 37.1656 80.8587 37.7447 80.8587C39.2555 80.8587 40.7914 80.8587 42.3021 80.8587C44.5431 80.8587 46.784 80.8587 49.025 80.8587C51.7695 80.8587 54.514 80.8587 57.2586 80.8587C60.2549 80.8587 63.2512 80.8587 66.2475 80.8587C69.2691 80.8587 72.2906 80.8587 75.3121 80.8587C78.1321 80.8587 80.9774 80.8587 83.7974 80.8587C86.1643 80.8587 88.5563 80.8587 90.9232 80.8587C92.6353 80.8587 94.3727 80.8587 96.0849 80.8587C96.8906 80.8587 97.6964 80.8587 98.5273 80.8587C98.5525 80.8587 98.6028 80.8587 98.628 80.8587C99.4337 80.8587 100.29 80.5044 100.844 79.9223C101.398 79.3656 101.801 78.4798 101.775 77.6952C101.75 76.8854 101.473 76.0249 100.844 75.4681C100.239 74.9114 99.4589 74.5317 98.628 74.5317C98.074 74.5317 97.5201 74.5317 96.941 74.5317C95.4302 74.5317 93.8943 74.5317 92.3836 74.5317C90.1426 74.5317 87.9017 74.5317 85.6607 74.5317C82.9162 74.5317 80.1716 74.5317 77.4271 74.5317C74.4308 74.5317 71.4345 74.5317 68.4381 74.5317C65.4166 74.5317 62.3951 74.5317 59.3736 74.5317C56.5536 74.5317 53.7083 74.5317 50.8882 74.5317C48.5214 74.5317 46.1294 74.5317 43.7625 74.5317C42.0503 74.5317 40.313 74.5317 38.6008 74.5317C37.7951 74.5317 36.9893 74.5317 36.1584 74.5317C36.1332 74.5317 36.0829 74.5317 36.0577 74.5317C35.252 74.5317 34.3959 74.8861 33.8419 75.4681C33.288 76.0249 32.8851 76.9107 32.9103 77.6952C32.9355 78.5051 33.2124 79.3656 33.8419 79.9223C34.4462 80.5044 35.2016 80.8587 36.0577 80.8587Z" fill="#333333"/>
<path d="M36.0577 97.2078C36.6116 97.2078 37.1656 97.2078 37.7447 97.2078C39.2555 97.2078 40.7914 97.2078 42.3021 97.2078C44.5431 97.2078 46.784 97.2078 49.025 97.2078C51.7695 97.2078 54.514 97.2078 57.2586 97.2078C60.2549 97.2078 63.2512 97.2078 66.2475 97.2078C69.2691 97.2078 72.2906 97.2078 75.3121 97.2078C78.1321 97.2078 80.9774 97.2078 83.7974 97.2078C86.1643 97.2078 88.5563 97.2078 90.9232 97.2078C92.6353 97.2078 94.3727 97.2078 96.0849 97.2078C96.8906 97.2078 97.6964 97.2078 98.5273 97.2078C98.5525 97.2078 98.6028 97.2078 98.628 97.2078C99.4337 97.2078 100.29 96.8535 100.844 96.2715C101.398 95.7147 101.801 94.8289 101.775 94.0444C101.75 93.2345 101.473 92.374 100.844 91.8172C100.239 91.2605 99.4589 90.8809 98.628 90.8809C98.074 90.8809 97.5201 90.8809 96.941 90.8809C95.4302 90.8809 93.8943 90.8809 92.3836 90.8809C90.1426 90.8809 87.9017 90.8809 85.6607 90.8809C82.9162 90.8809 80.1716 90.8809 77.4271 90.8809C74.4308 90.8809 71.4345 90.8809 68.4381 90.8809C65.4166 90.8809 62.3951 90.8809 59.3736 90.8809C56.5536 90.8809 53.7083 90.8809 50.8882 90.8809C48.5214 90.8809 46.1294 90.8809 43.7625 90.8809C42.0503 90.8809 40.313 90.8809 38.6008 90.8809C37.7951 90.8809 36.9893 90.8809 36.1584 90.8809C36.1332 90.8809 36.0829 90.8809 36.0577 90.8809C35.252 90.8809 34.3959 91.2352 33.8419 91.8172C33.288 92.374 32.8851 93.2598 32.9103 94.0444C32.9355 94.8542 33.2124 95.7147 33.8419 96.2715C34.4462 96.8535 35.2016 97.2078 36.0577 97.2078Z" fill="#333333"/>
<path d="M36.0577 113.582C36.6116 113.582 37.1656 113.582 37.7447 113.582C39.2555 113.582 40.7914 113.582 42.3021 113.582C44.5431 113.582 46.784 113.582 49.025 113.582C51.7695 113.582 54.514 113.582 57.2586 113.582C60.2549 113.582 63.2512 113.582 66.2475 113.582C69.2691 113.582 72.2906 113.582 75.3121 113.582C78.1321 113.582 80.9774 113.582 83.7974 113.582C86.1643 113.582 88.5563 113.582 90.9232 113.582C92.6353 113.582 94.3727 113.582 96.0849 113.582C96.8906 113.582 97.6964 113.582 98.5273 113.582C98.5525 113.582 98.6028 113.582 98.628 113.582C99.4337 113.582 100.29 113.228 100.844 112.645C101.398 112.089 101.801 111.203 101.775 110.418C101.75 109.609 101.473 108.748 100.844 108.191C100.239 107.635 99.4589 107.255 98.628 107.255C98.074 107.255 97.5201 107.255 96.941 107.255C95.4302 107.255 93.8943 107.255 92.3836 107.255C90.1426 107.255 87.9017 107.255 85.6607 107.255C82.9162 107.255 80.1716 107.255 77.4271 107.255C74.4308 107.255 71.4345 107.255 68.4381 107.255C65.4166 107.255 62.3951 107.255 59.3736 107.255C56.5536 107.255 53.7083 107.255 50.8882 107.255C48.5214 107.255 46.1294 107.255 43.7625 107.255C42.0503 107.255 40.313 107.255 38.6008 107.255C37.7951 107.255 36.9893 107.255 36.1584 107.255C36.1332 107.255 36.0829 107.255 36.0577 107.255C35.252 107.255 34.3959 107.609 33.8419 108.191C33.288 108.748 32.8851 109.634 32.9103 110.418C32.9355 111.228 33.2124 112.089 33.8419 112.645C34.4462 113.228 35.2016 113.582 36.0577 113.582Z" fill="#333333"/>
<path d="M36.0577 129.956C36.6116 129.956 37.1656 129.956 37.7447 129.956C39.2555 129.956 40.7914 129.956 42.3021 129.956C44.5431 129.956 46.784 129.956 49.025 129.956C51.7695 129.956 54.514 129.956 57.2586 129.956C60.2549 129.956 63.2512 129.956 66.2475 129.956C69.2691 129.956 72.2906 129.956 75.3121 129.956C78.1321 129.956 80.9774 129.956 83.7974 129.956C86.1643 129.956 88.5563 129.956 90.9232 129.956C92.6353 129.956 94.3727 129.956 96.0849 129.956C96.8906 129.956 97.6964 129.956 98.5273 129.956C98.5525 129.956 98.6028 129.956 98.628 129.956C99.4337 129.956 100.29 129.602 100.844 129.019C101.398 128.463 101.801 127.577 101.775 126.792C101.75 125.983 101.473 125.122 100.844 124.565C100.239 124.009 99.4589 123.629 98.628 123.629C98.074 123.629 97.5201 123.629 96.941 123.629C95.4302 123.629 93.8943 123.629 92.3836 123.629C90.1426 123.629 87.9017 123.629 85.6607 123.629C82.9162 123.629 80.1716 123.629 77.4271 123.629C74.4308 123.629 71.4345 123.629 68.4381 123.629C65.4166 123.629 62.3951 123.629 59.3736 123.629C56.5536 123.629 53.7083 123.629 50.8882 123.629C48.5214 123.629 46.1294 123.629 43.7625 123.629C42.0503 123.629 40.313 123.629 38.6008 123.629C37.7951 123.629 36.9893 123.629 36.1584 123.629C36.1332 123.629 36.0829 123.629 36.0577 123.629C35.252 123.629 34.3959 123.983 33.8419 124.565C33.288 125.122 32.8851 126.008 32.9103 126.792C32.9355 127.602 33.2124 128.463 33.8419 129.019C34.4462 129.602 35.2016 129.956 36.0577 129.956Z" fill="#333333"/>
<path d="M126.954 65.1173C131.377 65.1173 134.961 61.5141 134.961 57.0694C134.961 52.6247 131.377 49.0215 126.954 49.0215C122.532 49.0215 118.948 52.6247 118.948 57.0694C118.948 61.5141 122.532 65.1173 126.954 65.1173Z" fill="#F15A60"/>
</g>
<defs>
<clipPath id="clip0">
<rect width="149" height="150" fill="white" transform="translate(0.5)"/>
</clipPath>
</defs>
</svg>
