<svg width="150" height="150" viewBox="0 0 150 150" fill="none" xmlns="http://www.w3.org/2000/svg">
<g clip-path="url(#clip0)">
<path d="M105.495 25.5266C112.507 25.5266 118.191 19.8123 118.191 12.7633C118.191 5.71432 112.507 0 105.495 0C98.4824 0 92.7979 5.71432 92.7979 12.7633C92.7979 19.8123 98.4824 25.5266 105.495 25.5266Z" fill="#F15A60"/>
<path d="M130.788 23.6958C134.425 23.6958 137.374 20.732 137.374 17.0759C137.374 13.4199 134.425 10.4561 130.788 10.4561C127.151 10.4561 124.203 13.4199 124.203 17.0759C124.203 20.732 127.151 23.6958 130.788 23.6958Z" fill="#F15A60"/>
<path d="M124.203 8.72614C126.132 8.72614 127.695 7.15442 127.695 5.21561C127.695 3.2768 126.132 1.70508 124.203 1.70508C122.274 1.70508 120.711 3.2768 120.711 5.21561C120.711 7.15442 122.274 8.72614 124.203 8.72614Z" fill="#F15A60"/>
<path d="M76.1599 141.375C67.7786 138.943 59.2725 136.937 50.6667 135.357C40.8136 133.577 30.8608 132.348 20.883 131.696C16.0437 131.395 11.2045 131.22 6.34034 131.17C7.78712 132.624 9.25884 134.104 10.7056 135.558C10.7056 121.14 10.7056 106.721 10.7056 92.3283C10.7056 77.9853 10.7056 63.6673 10.7056 49.3243C10.7056 41.2751 10.7056 33.226 10.7056 25.1769C9.63301 26.5811 8.5604 27.9853 7.51273 29.4146C8.5604 29.239 9.58312 29.0886 10.6308 28.9381C10.2317 28.9883 9.85751 29.0384 9.4584 29.0886C17.0665 28.0605 24.7743 27.7847 32.4323 28.3113C35.0514 28.4868 37.6706 28.7626 40.2898 29.1137C39.8907 29.0635 39.5165 29.0134 39.1174 28.9632C47.3241 30.0916 55.3812 32.0725 63.1638 34.9311C64.9848 35.5831 66.7808 36.3103 68.5518 37.0625C68.2026 36.9121 67.8534 36.7616 67.5042 36.6112C69.2752 37.3634 71.0214 38.1658 72.7675 38.9933C72.0441 37.7395 71.3207 36.4607 70.5973 35.2069C70.5973 49.6252 70.5973 64.0434 70.5973 78.4366C70.5973 92.7796 70.5973 107.098 70.5973 121.441C70.5973 129.49 70.5973 137.539 70.5973 145.588C70.5973 147.895 72.5929 150.077 74.9626 149.976C77.3323 149.876 79.3279 148.045 79.3279 145.588C79.3279 131.17 79.3279 116.752 79.3279 102.358C79.3279 88.0154 79.3279 73.6974 79.3279 59.3544C79.3279 51.3052 79.3279 43.2561 79.3279 35.2069C79.3279 33.7526 78.5296 32.0725 77.1577 31.4206C69.3002 27.6092 61.0436 24.575 52.5375 22.569C41.9112 20.0364 30.9106 18.9331 20.0099 19.4096C15.046 19.6102 10.082 20.1618 5.16795 20.9642C4.81873 21.1147 4.4695 21.2651 4.12028 21.4156C3.62139 21.6914 3.19733 22.0675 2.898 22.544C2.34922 23.2962 2 24.1989 2 25.2019C2 39.6202 2 54.0384 2 68.4316C2 82.7746 2 97.0926 2 111.436C2 119.485 2 127.534 2 135.583C2 137.965 3.99556 139.946 6.36528 139.971C14.5221 140.021 22.679 140.473 30.7859 141.325C33.3303 141.601 35.8746 141.902 38.394 142.228C37.9949 142.178 37.6207 142.128 37.2216 142.078C47.1245 143.432 56.9277 145.337 66.6062 147.845C69.0258 148.472 71.4205 149.124 73.8151 149.826C76.0102 150.453 78.6544 149.048 79.1782 146.767C79.7519 144.435 78.5047 142.078 76.1599 141.375Z" fill="#333333"/>
<path d="M143.635 131.194C134.68 131.244 125.75 131.746 116.844 132.774C106.991 133.902 97.1881 135.532 87.5096 137.789C82.9199 138.867 78.355 140.071 73.8401 141.4C75.686 142.804 77.5319 144.208 79.3777 145.637C79.3777 131.219 79.3777 116.801 79.3777 102.408C79.3777 88.0645 79.3777 73.7466 79.3777 59.4036C79.3777 51.3544 79.3777 43.3053 79.3777 35.2561C78.6544 36.5099 77.931 37.7887 77.2076 39.0425C79.0285 38.1398 80.8994 37.3123 82.7702 36.5099C82.421 36.6603 82.0717 36.8108 81.7225 36.9612C88.7319 34.0024 96.0157 31.7205 103.474 30.216C105.969 29.7145 108.488 29.2882 111.032 28.9372C110.633 28.9873 110.259 29.0375 109.86 29.0876C118.067 27.9843 126.373 27.7837 134.605 28.4858C136.476 28.6363 138.371 28.8619 140.242 29.1127C139.843 29.0625 139.469 29.0124 139.07 28.9622C140.192 29.1127 141.315 29.2882 142.462 29.4637C141.39 28.0595 140.317 26.6553 139.269 25.226C139.269 39.6443 139.269 54.0625 139.269 68.4557C139.269 82.7987 139.269 97.1167 139.269 111.46C139.269 119.509 139.269 127.558 139.269 135.607C139.269 137.914 141.265 140.096 143.635 139.995C146.004 139.895 148 138.065 148 135.607C148 121.189 148 106.771 148 92.3775C148 78.0345 148 63.7165 148 49.3735C148 41.3243 148 33.2752 148 25.226C148 24.2481 147.651 23.3203 147.052 22.5681C146.528 21.8659 145.68 21.1388 144.782 20.9883C135.528 19.4587 126.124 18.9071 116.745 19.5841C106.118 20.3614 95.5917 22.4928 85.564 26.0535C81.1987 27.6082 76.9332 29.4136 72.7675 31.4447C71.4205 32.0966 70.5973 33.7767 70.5973 35.231C70.5973 49.6493 70.5973 64.0676 70.5973 78.4607C70.5973 92.8038 70.5973 107.122 70.5973 121.465C70.5973 129.514 70.5973 137.563 70.5973 145.612C70.5973 148.421 73.3911 150.652 76.135 149.85C85.1898 147.192 94.3694 145.035 103.674 143.431C106.667 142.904 109.66 142.453 112.654 142.052C112.255 142.102 111.88 142.152 111.481 142.202C119.962 141.048 128.518 140.346 137.099 140.071C139.269 139.995 141.44 139.97 143.61 139.97C145.905 139.97 148.075 137.964 147.975 135.582C147.9 133.225 146.079 131.194 143.635 131.194Z" fill="#333333"/>
<path d="M86.2624 78.8616C87.8838 78.0341 89.555 77.2818 91.2263 76.5546C90.9769 76.6549 90.7274 76.7553 90.478 76.8806C95.866 74.5988 101.479 72.8435 107.216 71.6901C109.062 71.3139 110.932 70.9879 112.803 70.7372C112.529 70.7623 112.255 70.8124 111.98 70.8375C117.667 70.0602 123.405 69.8596 129.117 70.2106C130.389 70.2858 131.661 70.3861 132.934 70.5366C133.682 70.6118 134.63 70.1354 135.129 69.6088C135.677 69.0572 136.077 68.1795 136.052 67.4022C136.027 66.5998 135.752 65.7472 135.129 65.1956C134.929 65.02 134.705 64.8696 134.505 64.6941C134.031 64.4182 133.482 64.2678 132.934 64.2678C126.797 63.6158 120.611 63.6158 114.5 64.2678C106.966 65.0702 99.5578 66.7252 92.4736 69.3581C89.2807 70.5366 86.1377 71.9157 83.0944 73.4202C82.4209 73.7462 81.8472 74.5737 81.6726 75.3009C81.473 76.0531 81.5479 77.0562 81.9969 77.7081C82.4209 78.3851 83.0695 78.9619 83.8677 79.1374C84.7158 79.3882 85.4891 79.2628 86.2624 78.8616Z" fill="#333333"/>
<path d="M86.2624 101.329C87.8838 100.501 89.555 99.7491 91.2263 99.0219C90.9769 99.1222 90.7274 99.2225 90.478 99.3479C95.866 97.0661 101.479 95.3108 107.216 94.1573C109.062 93.7812 110.932 93.4552 112.803 93.2045C112.529 93.2296 112.255 93.2797 111.98 93.3048C117.667 92.5274 123.405 92.3268 129.117 92.6779C130.389 92.7531 131.661 92.8534 132.934 93.0039C133.682 93.0791 134.63 92.6027 135.129 92.0761C135.677 91.5244 136.077 90.6468 136.052 89.8695C136.027 89.0671 135.752 88.2145 135.129 87.6628C134.929 87.4873 134.705 87.3369 134.505 87.1613C134.031 86.8855 133.482 86.7351 132.934 86.7351C126.797 86.0831 120.611 86.0831 114.5 86.7351C106.966 87.5375 99.5578 89.1924 92.4736 91.8253C89.2807 93.0039 86.1377 94.383 83.0944 95.8875C82.4209 96.2135 81.8472 97.041 81.6726 97.7682C81.473 98.5204 81.5479 99.5234 81.9969 100.175C82.4209 100.852 83.0695 101.429 83.8677 101.605C84.7158 101.83 85.4891 101.73 86.2624 101.329Z" fill="#333333"/>
<path d="M86.2624 123.797C87.8838 122.969 89.555 122.217 91.2263 121.49C90.9769 121.59 90.7274 121.69 90.478 121.816C95.866 119.534 101.479 117.779 107.216 116.625C109.062 116.249 110.932 115.923 112.803 115.672C112.529 115.697 112.255 115.747 111.98 115.773C117.667 114.995 123.405 114.795 129.117 115.146C130.389 115.221 131.661 115.321 132.934 115.472C133.682 115.547 134.63 115.07 135.129 114.544C135.677 113.992 136.077 113.115 136.052 112.337C136.027 111.535 135.752 110.682 135.129 110.131C134.929 109.955 134.705 109.805 134.505 109.629C134.031 109.353 133.482 109.203 132.934 109.203C126.797 108.551 120.611 108.551 114.5 109.203C106.966 110.005 99.5578 111.66 92.4736 114.293C89.2807 115.472 86.1377 116.851 83.0944 118.355C82.4209 118.681 81.8472 119.509 81.6726 120.236C81.473 120.988 81.5479 121.991 81.9969 122.643C82.4209 123.32 83.0695 123.897 83.8677 124.072C84.7158 124.298 85.4891 124.173 86.2624 123.797Z" fill="#333333"/>
<path d="M59.9958 42.8785C59.2724 37.8384 57.3018 33.35 54.059 29.4633C49.7935 24.348 44.3556 21.1634 37.7703 20.035C32.507 19.1574 27.4183 19.7592 22.5542 21.9157C17.1412 24.3229 12.9256 28.1092 9.95721 33.2747C6.93893 38.5656 5.84137 44.2577 6.58971 50.2757C7.0886 54.363 8.56032 58.0992 10.7305 61.6097C17.5653 72.6428 24.3751 83.701 31.185 94.7592C31.6839 95.5616 32.1827 96.2888 33.0059 96.7401C33.4549 96.7401 33.9039 96.7401 34.3529 96.7401C35.1761 96.3139 35.675 95.5867 36.1489 94.8093C42.7841 83.6258 49.4443 72.4422 56.1294 61.2838C59.5468 55.5917 60.9437 49.4984 59.9958 42.8785ZM42.3102 46.8404C42.2853 51.8053 38.2442 55.8424 33.2803 55.8174C28.3413 55.7923 24.3252 51.7301 24.3502 46.7401C24.3502 41.8003 28.4411 37.7381 33.3801 37.7381C38.2941 37.7381 42.3351 41.8755 42.3102 46.8404Z" fill="#F15A60"/>
</g>
<defs>
<clipPath id="clip0">
<rect width="150" height="150" fill="white"/>
</clipPath>
</defs>
</svg>
