<svg width="152" height="149" viewBox="0 0 152 149" fill="none" xmlns="http://www.w3.org/2000/svg">
<g clip-path="url(#clip0)">
<path d="M19.6714 47.3875C28.4696 47.3875 35.6019 40.2804 35.6019 31.5134C35.6019 22.7463 28.4696 15.6392 19.6714 15.6392C10.8733 15.6392 3.74097 22.7463 3.74097 31.5134C3.74097 40.2804 10.8733 47.3875 19.6714 47.3875Z" fill="#F15A60"/>
<path d="M8.16463 70.6175C12.1215 70.6175 15.3293 67.4211 15.3293 63.4782C15.3293 59.5353 12.1215 56.3389 8.16463 56.3389C4.20771 56.3389 1 59.5353 1 63.4782C1 67.4211 4.20771 70.6175 8.16463 70.6175Z" fill="#F15A60"/>
<path d="M22.1683 58.4211C24.2667 58.4211 25.9677 56.7261 25.9677 54.6351C25.9677 52.5442 24.2667 50.8491 22.1683 50.8491C20.07 50.8491 18.3689 52.5442 18.3689 54.6351C18.3689 56.7261 20.07 58.4211 22.1683 58.4211Z" fill="#F15A60"/>
<path d="M135.283 134.52C134.414 134.52 133.546 134.52 132.704 134.52C130.37 134.52 128.009 134.52 125.675 134.52C122.175 134.52 118.701 134.52 115.2 134.52C110.966 134.52 106.733 134.52 102.472 134.52C97.8311 134.52 93.1903 134.52 88.5496 134.52C83.8546 134.52 79.1867 134.52 74.4917 134.52C70.0953 134.52 65.6988 134.52 61.3294 134.52C57.6386 134.52 53.9477 134.52 50.2568 134.52C47.5972 134.52 44.9376 134.52 42.278 134.52C41.0297 134.52 39.7541 134.493 38.5058 134.52C38.4515 134.52 38.3972 134.52 38.3429 134.52C39.917 136.088 41.5182 137.684 43.0922 139.252C43.0922 138.09 43.0922 136.954 43.0922 135.791C43.0922 132.681 43.0922 129.571 43.0922 126.461C43.0922 121.837 43.0922 117.24 43.0922 112.615C43.0922 106.99 43.0922 101.365 43.0922 95.7404C43.0922 89.6017 43.0922 83.4629 43.0922 77.3242C43.0922 71.0773 43.0922 64.8304 43.0922 58.5834C43.0922 52.7963 43.0922 47.0091 43.0922 41.2489C43.0922 36.3542 43.0922 31.4324 43.0922 26.5376C43.0922 23.022 43.0922 19.4794 43.0922 15.9638C43.0922 14.2872 43.1193 12.6375 43.0922 10.9609C43.0922 10.8797 43.0922 10.8257 43.0922 10.7445C41.5182 12.313 39.917 13.9085 38.3429 15.477C39.2114 15.477 40.0798 15.477 40.9211 15.477C43.255 15.477 45.6161 15.477 47.95 15.477C51.4509 15.477 54.9247 15.477 58.4256 15.477C62.6592 15.477 66.8929 15.477 71.1537 15.477C75.7944 15.477 80.4351 15.477 85.0758 15.477C89.7708 15.477 94.4387 15.477 99.1337 15.477C103.53 15.477 107.927 15.477 112.296 15.477C115.987 15.477 119.678 15.477 123.369 15.477C126.028 15.477 128.688 15.477 131.347 15.477C132.596 15.477 133.871 15.5041 135.12 15.477C135.174 15.477 135.228 15.477 135.283 15.477C133.708 13.9085 132.107 12.313 130.533 10.7445C130.533 11.9074 130.533 13.0432 130.533 14.206C130.533 17.316 130.533 20.4259 130.533 23.5358C130.533 28.1602 130.533 32.7575 130.533 37.3818C130.533 43.0067 130.533 48.6317 130.533 54.2566C130.533 60.3953 130.533 66.5341 130.533 72.6728C130.533 78.9197 130.533 85.1666 130.533 91.4136C130.533 97.2007 130.533 102.988 130.533 108.748C130.533 113.643 130.533 118.565 130.533 123.459C130.533 126.975 130.533 130.518 130.533 134.033C130.533 135.71 130.506 137.359 130.533 139.036C130.533 139.117 130.533 139.171 130.533 139.252C130.533 141.74 132.704 144.093 135.283 143.985C137.861 143.877 140.032 141.903 140.032 139.252C140.032 138.09 140.032 136.954 140.032 135.791C140.032 132.681 140.032 129.571 140.032 126.461C140.032 121.837 140.032 117.24 140.032 112.615C140.032 106.99 140.032 101.365 140.032 95.7404C140.032 89.6017 140.032 83.4629 140.032 77.3242C140.032 71.0773 140.032 64.8304 140.032 58.5834C140.032 52.7963 140.032 47.0091 140.032 41.2489C140.032 36.3542 140.032 31.4324 140.032 26.5376C140.032 23.022 140.032 19.4794 140.032 15.9638C140.032 14.2872 140.059 12.6375 140.032 10.9609C140.032 10.8797 140.032 10.8257 140.032 10.7445C140.032 8.17545 137.861 6.01202 135.283 6.01202C134.414 6.01202 133.546 6.01202 132.704 6.01202C130.37 6.01202 128.009 6.01202 125.675 6.01202C122.175 6.01202 118.701 6.01202 115.2 6.01202C110.966 6.01202 106.733 6.01202 102.472 6.01202C97.8311 6.01202 93.1903 6.01202 88.5496 6.01202C83.8546 6.01202 79.1867 6.01202 74.4917 6.01202C70.0953 6.01202 65.6988 6.01202 61.3294 6.01202C57.6386 6.01202 53.9477 6.01202 50.2568 6.01202C47.5972 6.01202 44.9376 6.01202 42.278 6.01202C41.0297 6.01202 39.7541 5.98498 38.5058 6.01202C38.4515 6.01202 38.3972 6.01202 38.3429 6.01202C35.7376 5.98498 33.5665 8.14841 33.5665 10.7175C33.5665 11.8803 33.5665 13.0161 33.5665 14.179C33.5665 17.2889 33.5665 20.3989 33.5665 23.5088C33.5665 28.1331 33.5665 32.7304 33.5665 37.3548C33.5665 42.9797 33.5665 48.6046 33.5665 54.2295C33.5665 60.3683 33.5665 66.507 33.5665 72.6458C33.5665 78.8927 33.5665 85.1396 33.5665 91.3865C33.5665 97.1737 33.5665 102.961 33.5665 108.721C33.5665 113.616 33.5665 118.538 33.5665 123.432C33.5665 126.948 33.5665 130.491 33.5665 134.006C33.5665 135.683 33.5394 137.332 33.5665 139.009C33.5665 139.09 33.5665 139.144 33.5665 139.225C33.5665 141.795 35.7376 143.958 38.3158 143.958C39.1842 143.958 40.0527 143.958 40.894 143.958C43.2279 143.958 45.589 143.958 47.9229 143.958C51.4238 143.958 54.8976 143.958 58.3985 143.958C62.6321 143.958 66.8657 143.958 71.1265 143.958C75.7673 143.958 80.408 143.958 85.0487 143.958C89.7437 143.958 94.4116 143.958 99.1066 143.958C103.503 143.958 107.9 143.958 112.269 143.958C115.96 143.958 119.651 143.958 123.341 143.958C126.001 143.958 128.661 143.958 131.32 143.958C132.569 143.958 133.844 143.985 135.093 143.958C135.147 143.958 135.201 143.958 135.255 143.958C137.752 143.958 140.113 141.795 140.005 139.225C139.923 136.683 137.942 134.52 135.283 134.52Z" fill="#333333"/>
<path d="M64.8303 35.9487C64.8303 37.5172 64.8303 39.1127 64.8303 40.6812C65.9701 39.5454 67.0828 38.4367 68.2227 37.3009C62.6592 37.3009 57.1229 37.3009 51.5595 37.3009C52.6993 38.4367 53.812 39.5454 54.9518 40.6812C54.9518 38.8153 54.9518 36.9493 54.9518 35.0833C54.9518 32.1086 54.9518 29.1339 54.9518 26.1321C54.9518 25.4561 54.9518 24.78 54.9518 24.0769C54.9518 23.2115 54.5719 22.292 53.9477 21.6971C53.3506 21.1022 52.4008 20.6695 51.5595 20.6965C50.691 20.7236 49.7683 21.021 49.1712 21.6971C48.5742 22.3461 48.1671 23.1845 48.1671 24.0769C48.1671 25.9428 48.1671 27.8088 48.1671 29.6748C48.1671 32.6495 48.1671 35.6242 48.1671 38.626C48.1671 39.302 48.1671 39.9781 48.1671 40.6812C48.1671 42.5201 49.714 44.0616 51.5595 44.0616C57.1229 44.0616 62.6592 44.0616 68.2227 44.0616C70.0681 44.0616 71.615 42.5201 71.615 40.6812C71.615 39.1127 71.615 37.5172 71.615 35.9487C71.615 35.0833 71.2351 34.1639 70.6109 33.5689C70.0138 32.974 69.064 32.5413 68.2227 32.5684C67.3542 32.5954 66.4315 32.8929 65.8344 33.5689C65.2103 34.218 64.8303 35.0293 64.8303 35.9487Z" fill="#333333"/>
<path d="M64.8303 63.3701C64.8303 64.9386 64.8303 66.5341 64.8303 68.1026C65.9701 66.9668 67.0828 65.858 68.2227 64.7222C62.6592 64.7222 57.1229 64.7222 51.5595 64.7222C52.6993 65.858 53.812 66.9668 54.9518 68.1026C54.9518 66.2367 54.9518 64.3707 54.9518 62.5047C54.9518 59.53 54.9518 56.5553 54.9518 53.5535C54.9518 52.8775 54.9518 52.2014 54.9518 51.4983C54.9518 50.6329 54.5719 49.7134 53.9477 49.1185C53.3506 48.5235 52.4008 48.0909 51.5595 48.1179C50.691 48.1449 49.7683 48.4424 49.1712 49.1185C48.5742 49.7675 48.1671 50.6058 48.1671 51.4983C48.1671 53.3642 48.1671 55.2302 48.1671 57.0961C48.1671 60.0709 48.1671 63.0456 48.1671 66.0474C48.1671 66.7234 48.1671 67.3995 48.1671 68.1026C48.1671 69.9415 49.714 71.483 51.5595 71.483C57.1229 71.483 62.6592 71.483 68.2227 71.483C70.0681 71.483 71.615 69.9415 71.615 68.1026C71.615 66.5341 71.615 64.9386 71.615 63.3701C71.615 62.5047 71.2351 61.5853 70.6109 60.9903C70.0138 60.3954 69.064 59.9627 68.2227 59.9897C67.3542 60.0168 66.4315 60.3143 65.8344 60.9903C65.2103 61.6394 64.8303 62.4506 64.8303 63.3701Z" fill="#333333"/>
<path d="M64.8303 90.7915C64.8303 92.36 64.8303 93.9555 64.8303 95.524C65.9701 94.3882 67.0828 93.2794 68.2227 92.1436C62.6592 92.1436 57.1229 92.1436 51.5595 92.1436C52.6993 93.2794 53.812 94.3882 54.9518 95.524C54.9518 93.658 54.9518 91.7921 54.9518 89.9261C54.9518 86.9514 54.9518 83.9767 54.9518 80.9749C54.9518 80.2988 54.9518 79.6228 54.9518 78.9197C54.9518 78.0543 54.5719 77.1348 53.9477 76.5399C53.3506 75.9449 52.4008 75.5122 51.5595 75.5393C50.691 75.5663 49.7683 75.8638 49.1712 76.5399C48.5742 77.1889 48.1671 78.0272 48.1671 78.9197C48.1671 80.7856 48.1671 82.6516 48.1671 84.5175C48.1671 87.4923 48.1671 90.467 48.1671 93.4687C48.1671 94.1448 48.1671 94.8209 48.1671 95.524C48.1671 97.3629 49.714 98.9044 51.5595 98.9044C57.1229 98.9044 62.6592 98.9044 68.2227 98.9044C70.0681 98.9044 71.615 97.3629 71.615 95.524C71.615 93.9555 71.615 92.36 71.615 90.7915C71.615 89.9261 71.2351 89.0067 70.6109 88.4117C70.0138 87.8168 69.064 87.3841 68.2227 87.4111C67.3542 87.4382 66.4315 87.7356 65.8344 88.4117C65.2103 89.0607 64.8303 89.872 64.8303 90.7915Z" fill="#333333"/>
<path d="M64.8303 118.213C64.8303 119.781 64.8303 121.377 64.8303 122.945C65.9701 121.81 67.0828 120.701 68.2227 119.565C62.6592 119.565 57.1229 119.565 51.5595 119.565C52.6993 120.701 53.812 121.81 54.9518 122.945C54.9518 121.079 54.9518 119.213 54.9518 117.348C54.9518 114.373 54.9518 111.398 54.9518 108.396C54.9518 107.72 54.9518 107.044 54.9518 106.341C54.9518 105.476 54.5719 104.556 53.9477 103.961C53.3506 103.366 52.4008 102.934 51.5595 102.961C50.691 102.988 49.7683 103.285 49.1712 103.961C48.5742 104.61 48.1671 105.449 48.1671 106.341C48.1671 108.207 48.1671 110.073 48.1671 111.939C48.1671 114.914 48.1671 117.888 48.1671 120.89C48.1671 121.566 48.1671 122.242 48.1671 122.945C48.1671 124.784 49.714 126.326 51.5595 126.326C57.1229 126.326 62.6592 126.326 68.2227 126.326C70.0681 126.326 71.615 124.784 71.615 122.945C71.615 121.377 71.615 119.781 71.615 118.213C71.615 117.348 71.2351 116.428 70.6109 115.833C70.0138 115.238 69.064 114.805 68.2227 114.833C67.3542 114.86 66.4315 115.157 65.8344 115.833C65.2103 116.482 64.8303 117.293 64.8303 118.213Z" fill="#333333"/>
<path d="M77.8027 44.0615C78.2098 44.0615 78.644 44.0615 79.0511 44.0615C80.1909 44.0615 81.3308 44.0615 82.4435 44.0615C84.1261 44.0615 85.7815 44.0615 87.4641 44.0615C89.4995 44.0615 91.5349 44.0615 93.5703 44.0615C95.7957 44.0615 98.0211 44.0615 100.246 44.0615C102.499 44.0615 104.779 44.0615 107.031 44.0615C109.121 44.0615 111.238 44.0615 113.327 44.0615C115.091 44.0615 116.883 44.0615 118.647 44.0615C119.922 44.0615 121.198 44.0615 122.473 44.0615C123.07 44.0615 123.694 44.0615 124.291 44.0615C124.319 44.0615 124.346 44.0615 124.373 44.0615C125.241 44.0615 126.164 43.6829 126.761 43.0609C127.358 42.466 127.792 41.5195 127.765 40.6811C127.738 39.8158 127.439 38.8963 126.761 38.3014C126.11 37.7064 125.268 37.3008 124.373 37.3008C123.966 37.3008 123.532 37.3008 123.124 37.3008C121.985 37.3008 120.845 37.3008 119.732 37.3008C118.049 37.3008 116.394 37.3008 114.711 37.3008C112.676 37.3008 110.641 37.3008 108.605 37.3008C106.38 37.3008 104.154 37.3008 101.929 37.3008C99.6766 37.3008 97.3969 37.3008 95.1444 37.3008C93.0547 37.3008 90.9379 37.3008 88.8482 37.3008C87.0842 37.3008 85.293 37.3008 83.529 37.3008C82.2535 37.3008 80.978 37.3008 79.7024 37.3008C79.1054 37.3008 78.4812 37.3008 77.8841 37.3008C77.857 37.3008 77.8299 37.3008 77.8027 37.3008C76.9343 37.3008 76.0116 37.6794 75.4145 38.3014C74.8175 38.8963 74.3832 39.8428 74.4104 40.6811C74.4375 41.5465 74.7361 42.466 75.4145 43.0609C76.0659 43.6829 76.88 44.0615 77.8027 44.0615Z" fill="#333333"/>
<path d="M77.8027 71.4829C78.2098 71.4829 78.644 71.4829 79.0511 71.4829C80.1909 71.4829 81.3308 71.4829 82.4435 71.4829C84.1261 71.4829 85.7815 71.4829 87.4641 71.4829C89.4995 71.4829 91.5349 71.4829 93.5703 71.4829C95.7957 71.4829 98.0211 71.4829 100.246 71.4829C102.499 71.4829 104.779 71.4829 107.031 71.4829C109.121 71.4829 111.238 71.4829 113.327 71.4829C115.091 71.4829 116.883 71.4829 118.647 71.4829C119.922 71.4829 121.198 71.4829 122.473 71.4829C123.07 71.4829 123.694 71.4829 124.291 71.4829C124.319 71.4829 124.346 71.4829 124.373 71.4829C125.241 71.4829 126.164 71.1043 126.761 70.4823C127.358 69.8874 127.792 68.9409 127.765 68.1025C127.738 67.2372 127.439 66.3177 126.761 65.7228C126.11 65.1278 125.268 64.7222 124.373 64.7222C123.966 64.7222 123.532 64.7222 123.124 64.7222C121.985 64.7222 120.845 64.7222 119.732 64.7222C118.049 64.7222 116.394 64.7222 114.711 64.7222C112.676 64.7222 110.641 64.7222 108.605 64.7222C106.38 64.7222 104.154 64.7222 101.929 64.7222C99.6766 64.7222 97.3969 64.7222 95.1444 64.7222C93.0547 64.7222 90.9379 64.7222 88.8482 64.7222C87.0842 64.7222 85.293 64.7222 83.529 64.7222C82.2535 64.7222 80.978 64.7222 79.7024 64.7222C79.1054 64.7222 78.4812 64.7222 77.8841 64.7222C77.857 64.7222 77.8299 64.7222 77.8027 64.7222C76.9343 64.7222 76.0116 65.1008 75.4145 65.7228C74.8175 66.3177 74.3832 67.2642 74.4104 68.1025C74.4375 68.9679 74.7361 69.8874 75.4145 70.4823C76.0659 71.1043 76.88 71.4829 77.8027 71.4829Z" fill="#333333"/>
<path d="M77.8027 98.9043C78.2098 98.9043 78.644 98.9043 79.0511 98.9043C80.1909 98.9043 81.3308 98.9043 82.4435 98.9043C84.1261 98.9043 85.7815 98.9043 87.4641 98.9043C89.4995 98.9043 91.5349 98.9043 93.5703 98.9043C95.7957 98.9043 98.0211 98.9043 100.246 98.9043C102.499 98.9043 104.779 98.9043 107.031 98.9043C109.121 98.9043 111.238 98.9043 113.327 98.9043C115.091 98.9043 116.883 98.9043 118.647 98.9043C119.922 98.9043 121.198 98.9043 122.473 98.9043C123.07 98.9043 123.694 98.9043 124.291 98.9043C124.319 98.9043 124.346 98.9043 124.373 98.9043C125.241 98.9043 126.164 98.5257 126.761 97.9037C127.358 97.3087 127.792 96.3622 127.765 95.5239C127.738 94.6585 127.439 93.7391 126.761 93.1441C126.11 92.5492 125.268 92.1436 124.373 92.1436C123.966 92.1436 123.532 92.1436 123.124 92.1436C121.985 92.1436 120.845 92.1436 119.732 92.1436C118.049 92.1436 116.394 92.1436 114.711 92.1436C112.676 92.1436 110.641 92.1436 108.605 92.1436C106.38 92.1436 104.154 92.1436 101.929 92.1436C99.6766 92.1436 97.3969 92.1436 95.1444 92.1436C93.0547 92.1436 90.9379 92.1436 88.8482 92.1436C87.0842 92.1436 85.293 92.1436 83.529 92.1436C82.2535 92.1436 80.978 92.1436 79.7024 92.1436C79.1054 92.1436 78.4812 92.1436 77.8841 92.1436C77.857 92.1436 77.8299 92.1436 77.8027 92.1436C76.9343 92.1436 76.0116 92.5222 75.4145 93.1441C74.8175 93.7391 74.3832 94.6856 74.4104 95.5239C74.4375 96.3893 74.7361 97.3087 75.4145 97.9037C76.0659 98.5257 76.88 98.9043 77.8027 98.9043Z" fill="#333333"/>
<path d="M77.8027 126.326C78.2098 126.326 78.644 126.326 79.0511 126.326C80.1909 126.326 81.3308 126.326 82.4435 126.326C84.1261 126.326 85.7815 126.326 87.4641 126.326C89.4995 126.326 91.5349 126.326 93.5703 126.326C95.7957 126.326 98.0211 126.326 100.246 126.326C102.499 126.326 104.779 126.326 107.031 126.326C109.121 126.326 111.238 126.326 113.327 126.326C115.091 126.326 116.883 126.326 118.647 126.326C119.922 126.326 121.198 126.326 122.473 126.326C123.07 126.326 123.694 126.326 124.291 126.326C124.319 126.326 124.346 126.326 124.373 126.326C125.241 126.326 126.164 125.948 126.761 125.326C127.358 124.731 127.792 123.784 127.765 122.946C127.738 122.08 127.439 121.161 126.761 120.566C126.11 119.971 125.268 119.565 124.373 119.565C123.966 119.565 123.532 119.565 123.124 119.565C121.985 119.565 120.845 119.565 119.732 119.565C118.049 119.565 116.394 119.565 114.711 119.565C112.676 119.565 110.641 119.565 108.605 119.565C106.38 119.565 104.154 119.565 101.929 119.565C99.6766 119.565 97.3969 119.565 95.1444 119.565C93.0547 119.565 90.9379 119.565 88.8482 119.565C87.0842 119.565 85.293 119.565 83.529 119.565C82.2535 119.565 80.978 119.565 79.7024 119.565C79.1054 119.565 78.4812 119.565 77.8841 119.565C77.857 119.565 77.8299 119.565 77.8027 119.565C76.9343 119.565 76.0116 119.944 75.4145 120.566C74.8175 121.161 74.3832 122.107 74.4104 122.946C74.4375 123.811 74.7361 124.731 75.4145 125.326C76.0659 125.948 76.88 126.326 77.8027 126.326Z" fill="#333333"/>
<path d="M101.739 79.0548C104.914 82.6515 108.062 86.2482 111.238 89.8449C112.133 90.8726 113.056 91.9002 113.952 92.9278C114.386 93.3876 114.901 93.7121 115.471 93.9014C116.041 94.1988 116.638 94.3341 117.29 94.307C118.484 94.2529 119.868 93.8743 120.655 92.9278C124.536 88.2494 128.444 83.571 132.324 78.9196C136.205 74.2412 140.113 69.5627 143.994 64.9114C146.192 62.2882 148.391 59.638 150.562 57.0148C151.023 56.5821 151.349 56.0683 151.539 55.5004C151.837 54.9325 151.973 54.3376 151.946 53.6886C151.946 52.5257 151.43 51.1465 150.562 50.3352C149.666 49.4969 148.472 48.902 147.196 48.956C146.002 49.0101 144.618 49.3887 143.831 50.3352C139.95 55.0137 136.042 59.6921 132.162 64.3435C128.281 68.9948 124.373 73.7003 120.492 78.3517C118.294 80.9749 116.095 83.6251 113.924 86.2482C116.15 86.2482 118.402 86.2482 120.628 86.2482C117.452 82.6515 114.304 79.0548 111.129 75.4581C110.234 74.4305 109.311 73.4028 108.415 72.3752C107.981 71.9155 107.465 71.591 106.895 71.4017C106.326 71.1042 105.728 70.969 105.077 70.996C103.91 70.996 102.526 71.5098 101.712 72.3752C100.871 73.2676 100.274 74.4575 100.328 75.7285C100.382 76.1612 100.436 76.5669 100.491 76.9995C100.735 77.7838 101.142 78.4599 101.739 79.0548Z" fill="#F15A60"/>
</g>
<defs>
<clipPath id="clip0">
<rect width="151" height="149" fill="white" transform="translate(0.5)"/>
</clipPath>
</defs>
</svg>
