<svg width="24" height="24" viewBox="0 0 24 24" fill="none" xmlns="http://www.w3.org/2000/svg">
<circle r="12" transform="matrix(1 0 0 -1 12 12)" fill="#9D2235"/>
<path d="M18.467 5.47953C18.1323 5.17698 17.6784 5.00701 17.2051 5.00701C16.7318 5.00701 16.2779 5.17698 15.9432 5.47953L12.0007 9.55335L8.05824 5.48087C7.89302 5.32905 7.69619 5.20831 7.4791 5.1256C7.262 5.0429 7.02894 4.99987 6.79336 4.99901C6.55778 4.99814 6.32435 5.03945 6.10651 5.12055C5.88868 5.20165 5.69077 5.32094 5.52419 5.47154C5.35761 5.62214 5.22566 5.80107 5.13595 5.998C5.04624 6.19494 5.00054 6.40598 5.0015 6.61896C5.00246 6.83194 5.05005 7.04263 5.14153 7.2389C5.23302 7.43517 5.36657 7.61312 5.53451 7.76248L9.63614 11.9976L5.53302 16.2355C5.36509 16.3849 5.23153 16.5628 5.14005 16.7591C5.04857 16.9554 5.00097 17.166 5.00001 17.379C4.99906 17.592 5.04475 17.803 5.13446 18C5.22417 18.1969 5.35612 18.3758 5.5227 18.5264C5.68928 18.677 5.8872 18.7963 6.10503 18.8774C6.32286 18.9585 6.5563 18.9998 6.79188 18.999C7.02746 18.9981 7.26051 18.9551 7.47761 18.8724C7.6947 18.7897 7.89154 18.6689 8.05676 18.5171L12.0007 14.4419L15.9432 18.5171C16.1085 18.6689 16.3053 18.7897 16.5224 18.8724C16.7395 18.9551 16.9725 18.9981 17.2081 18.999C17.4437 18.9998 17.6771 18.9585 17.895 18.8774C18.1128 18.7963 18.3107 18.677 18.4773 18.5264C18.6439 18.3758 18.7758 18.1969 18.8655 18C18.9553 17.803 19.0009 17.592 19 17.379C18.999 17.166 18.9514 16.9554 18.86 16.7591C18.7685 16.5628 18.6349 16.3849 18.467 16.2355L14.3654 11.9976L18.467 7.76248C18.6329 7.61264 18.7645 7.4347 18.8543 7.23884C18.9442 7.04298 18.9904 6.83303 18.9904 6.62101C18.9904 6.40898 18.9442 6.19904 18.8543 6.00317C18.7645 5.80731 18.6329 5.62937 18.467 5.47953Z" fill="white"/>
</svg>
