<svg width="13" height="8" viewBox="0 0 13 8" fill="none" xmlns="http://www.w3.org/2000/svg">
<path fill-rule="evenodd" clip-rule="evenodd" d="M4.33333 7.42857C4.33333 7.27702 4.3904 7.13167 4.49198 7.02451C4.59357 6.91735 4.73134 6.85714 4.875 6.85714H8.125C8.26866 6.85714 8.40644 6.91735 8.50802 7.02451C8.6096 7.13167 8.66667 7.27702 8.66667 7.42857C8.66667 7.58012 8.6096 7.72547 8.50802 7.83263C8.40644 7.9398 8.26866 8 8.125 8H4.875C4.73134 8 4.59357 7.9398 4.49198 7.83263C4.3904 7.72547 4.33333 7.58012 4.33333 7.42857ZM2.16667 4C2.16667 3.84845 2.22374 3.7031 2.32532 3.59594C2.4269 3.48878 2.56467 3.42857 2.70833 3.42857H10.2917C10.4353 3.42857 10.5731 3.48878 10.6747 3.59594C10.7763 3.7031 10.8333 3.84845 10.8333 4C10.8333 4.15155 10.7763 4.2969 10.6747 4.40406C10.5731 4.51122 10.4353 4.57143 10.2917 4.57143H2.70833C2.56467 4.57143 2.4269 4.51122 2.32532 4.40406C2.22374 4.2969 2.16667 4.15155 2.16667 4ZM0 0.571429C0 0.419876 0.0570684 0.274531 0.158651 0.167368C0.260233 0.060204 0.398008 0 0.541667 0H12.4583C12.602 0 12.7398 0.060204 12.8414 0.167368C12.9429 0.274531 13 0.419876 13 0.571429C13 0.722981 12.9429 0.868326 12.8414 0.975489C12.7398 1.08265 12.602 1.14286 12.4583 1.14286H0.541667C0.398008 1.14286 0.260233 1.08265 0.158651 0.975489C0.0570684 0.868326 0 0.722981 0 0.571429Z" fill="#4F4F4F"/>
</svg>
